G04 #@! TF.FileFunction,Legend,Top*
%FSLAX46Y46*%
G04 Gerber Fmt 4.6, Leading zero omitted, Abs format (unit mm)*
G04 Created by KiCad (PCBNEW 4.0.7) date 05/28/18 16:01:47*
%MOMM*%
%LPD*%
G01*
G04 APERTURE LIST*
%ADD10C,0.100000*%
%ADD11C,0.120000*%
%ADD12C,0.150000*%
G04 APERTURE END LIST*
D10*
D11*
X161810000Y-106170000D02*
G75*
G02X159810000Y-106170000I-1000000J0D01*
G01*
X159810000Y-106170000D02*
X158160000Y-106170000D01*
X158160000Y-106170000D02*
X158160000Y-126610000D01*
X158160000Y-126610000D02*
X163460000Y-126610000D01*
X163460000Y-126610000D02*
X163460000Y-106170000D01*
X163460000Y-106170000D02*
X161810000Y-106170000D01*
X155670000Y-106110000D02*
X155670000Y-126670000D01*
X155670000Y-126670000D02*
X165950000Y-126670000D01*
X165950000Y-126670000D02*
X165950000Y-106110000D01*
X165950000Y-106110000D02*
X155670000Y-106110000D01*
D12*
X194105000Y-138485000D02*
X194505000Y-138485000D01*
X194105000Y-134985000D02*
X194505000Y-134985000D01*
X194105000Y-131485000D02*
X194505000Y-131485000D01*
X193005000Y-141985000D02*
X193005000Y-127985000D01*
X194105000Y-141985000D02*
X194105000Y-127985000D01*
X186905000Y-141985000D02*
X194505000Y-141985000D01*
X194505000Y-127985000D02*
X186905000Y-127985000D01*
X186905000Y-127985000D02*
X186905000Y-141985000D01*
X153505000Y-50485000D02*
X95505000Y-50485000D01*
X157005000Y-76985000D02*
X157005000Y-53985000D01*
X95505000Y-80485000D02*
X153505000Y-80485000D01*
X92005000Y-53985000D02*
X92005000Y-76985000D01*
X155005000Y-76985000D02*
G75*
G03X155005000Y-76985000I-1500000J0D01*
G01*
X156505000Y-76985000D02*
G75*
G03X156505000Y-76985000I-3000000J0D01*
G01*
X97005000Y-76985000D02*
G75*
G03X97005000Y-76985000I-1500000J0D01*
G01*
X98505000Y-76985000D02*
G75*
G03X98505000Y-76985000I-3000000J0D01*
G01*
X157005000Y-53985000D02*
G75*
G03X153505000Y-50485000I-3500000J0D01*
G01*
X153505000Y-80485000D02*
G75*
G03X157005000Y-76985000I0J3500000D01*
G01*
X92005000Y-76985000D02*
G75*
G03X95505000Y-80485000I3500000J0D01*
G01*
X95505000Y-50485000D02*
G75*
G03X92005000Y-53985000I0J-3500000D01*
G01*
X155005000Y-53985000D02*
G75*
G03X155005000Y-53985000I-1500000J0D01*
G01*
X156505000Y-53985000D02*
G75*
G03X156505000Y-53985000I-3000000J0D01*
G01*
X97005000Y-53985000D02*
G75*
G03X97005000Y-53985000I-1500000J0D01*
G01*
X98505000Y-53985000D02*
G75*
G03X98505000Y-53985000I-3000000J0D01*
G01*
D11*
X149965000Y-56585000D02*
X149965000Y-51385000D01*
X101645000Y-56585000D02*
X149965000Y-56585000D01*
X99045000Y-51385000D02*
X149965000Y-51385000D01*
X101645000Y-56585000D02*
X101645000Y-53985000D01*
X101645000Y-53985000D02*
X99045000Y-53985000D01*
X99045000Y-53985000D02*
X99045000Y-51385000D01*
X100375000Y-56585000D02*
X99045000Y-56585000D01*
X99045000Y-56585000D02*
X99045000Y-55255000D01*
X102437445Y-132326851D02*
G75*
G03X102440000Y-124493918I-1177445J3916851D01*
G01*
X100082555Y-132326851D02*
G75*
G02X100080000Y-124493918I1177445J3916851D01*
G01*
X100082555Y-132326851D02*
G75*
G03X102440000Y-132326082I1177445J3916851D01*
G01*
X105310000Y-128410000D02*
X97210000Y-128410000D01*
X105310000Y-128450000D02*
X97210000Y-128450000D01*
X105310000Y-128490000D02*
X97210000Y-128490000D01*
X105309000Y-128530000D02*
X97211000Y-128530000D01*
X105307000Y-128570000D02*
X97213000Y-128570000D01*
X105306000Y-128610000D02*
X97214000Y-128610000D01*
X105303000Y-128650000D02*
X97217000Y-128650000D01*
X105301000Y-128690000D02*
X97219000Y-128690000D01*
X105298000Y-128730000D02*
X97222000Y-128730000D01*
X105295000Y-128770000D02*
X97225000Y-128770000D01*
X105291000Y-128810000D02*
X97229000Y-128810000D01*
X105287000Y-128850000D02*
X97233000Y-128850000D01*
X105282000Y-128890000D02*
X97238000Y-128890000D01*
X105277000Y-128930000D02*
X97243000Y-128930000D01*
X105272000Y-128970000D02*
X97248000Y-128970000D01*
X105266000Y-129010000D02*
X97254000Y-129010000D01*
X105260000Y-129050000D02*
X97260000Y-129050000D01*
X105254000Y-129090000D02*
X97266000Y-129090000D01*
X105247000Y-129131000D02*
X97273000Y-129131000D01*
X105239000Y-129171000D02*
X97281000Y-129171000D01*
X105231000Y-129211000D02*
X97289000Y-129211000D01*
X105223000Y-129251000D02*
X97297000Y-129251000D01*
X105215000Y-129291000D02*
X97305000Y-129291000D01*
X105206000Y-129331000D02*
X97314000Y-129331000D01*
X105196000Y-129371000D02*
X97324000Y-129371000D01*
X105186000Y-129411000D02*
X97334000Y-129411000D01*
X105176000Y-129451000D02*
X97344000Y-129451000D01*
X105165000Y-129491000D02*
X97355000Y-129491000D01*
X105154000Y-129531000D02*
X97366000Y-129531000D01*
X105143000Y-129571000D02*
X97377000Y-129571000D01*
X105130000Y-129611000D02*
X97390000Y-129611000D01*
X105118000Y-129651000D02*
X97402000Y-129651000D01*
X105105000Y-129691000D02*
X97415000Y-129691000D01*
X105092000Y-129731000D02*
X97428000Y-129731000D01*
X105078000Y-129771000D02*
X97442000Y-129771000D01*
X105063000Y-129811000D02*
X97457000Y-129811000D01*
X105049000Y-129851000D02*
X97471000Y-129851000D01*
X105033000Y-129891000D02*
X97487000Y-129891000D01*
X105018000Y-129931000D02*
X102240000Y-129931000D01*
X100280000Y-129931000D02*
X97502000Y-129931000D01*
X105001000Y-129971000D02*
X102240000Y-129971000D01*
X100280000Y-129971000D02*
X97519000Y-129971000D01*
X104985000Y-130011000D02*
X102240000Y-130011000D01*
X100280000Y-130011000D02*
X97535000Y-130011000D01*
X104967000Y-130051000D02*
X102240000Y-130051000D01*
X100280000Y-130051000D02*
X97553000Y-130051000D01*
X104950000Y-130091000D02*
X102240000Y-130091000D01*
X100280000Y-130091000D02*
X97570000Y-130091000D01*
X104931000Y-130131000D02*
X102240000Y-130131000D01*
X100280000Y-130131000D02*
X97589000Y-130131000D01*
X104912000Y-130171000D02*
X102240000Y-130171000D01*
X100280000Y-130171000D02*
X97608000Y-130171000D01*
X104893000Y-130211000D02*
X102240000Y-130211000D01*
X100280000Y-130211000D02*
X97627000Y-130211000D01*
X104873000Y-130251000D02*
X102240000Y-130251000D01*
X100280000Y-130251000D02*
X97647000Y-130251000D01*
X104853000Y-130291000D02*
X102240000Y-130291000D01*
X100280000Y-130291000D02*
X97667000Y-130291000D01*
X104832000Y-130331000D02*
X102240000Y-130331000D01*
X100280000Y-130331000D02*
X97688000Y-130331000D01*
X104810000Y-130371000D02*
X102240000Y-130371000D01*
X100280000Y-130371000D02*
X97710000Y-130371000D01*
X104788000Y-130411000D02*
X102240000Y-130411000D01*
X100280000Y-130411000D02*
X97732000Y-130411000D01*
X104765000Y-130451000D02*
X102240000Y-130451000D01*
X100280000Y-130451000D02*
X97755000Y-130451000D01*
X104742000Y-130491000D02*
X102240000Y-130491000D01*
X100280000Y-130491000D02*
X97778000Y-130491000D01*
X104718000Y-130531000D02*
X102240000Y-130531000D01*
X100280000Y-130531000D02*
X97802000Y-130531000D01*
X104694000Y-130571000D02*
X102240000Y-130571000D01*
X100280000Y-130571000D02*
X97826000Y-130571000D01*
X104668000Y-130611000D02*
X102240000Y-130611000D01*
X100280000Y-130611000D02*
X97852000Y-130611000D01*
X104643000Y-130651000D02*
X102240000Y-130651000D01*
X100280000Y-130651000D02*
X97877000Y-130651000D01*
X104616000Y-130691000D02*
X102240000Y-130691000D01*
X100280000Y-130691000D02*
X97904000Y-130691000D01*
X104589000Y-130731000D02*
X102240000Y-130731000D01*
X100280000Y-130731000D02*
X97931000Y-130731000D01*
X104561000Y-130771000D02*
X102240000Y-130771000D01*
X100280000Y-130771000D02*
X97959000Y-130771000D01*
X104532000Y-130811000D02*
X102240000Y-130811000D01*
X100280000Y-130811000D02*
X97988000Y-130811000D01*
X104503000Y-130851000D02*
X102240000Y-130851000D01*
X100280000Y-130851000D02*
X98017000Y-130851000D01*
X104473000Y-130891000D02*
X102240000Y-130891000D01*
X100280000Y-130891000D02*
X98047000Y-130891000D01*
X104442000Y-130931000D02*
X102240000Y-130931000D01*
X100280000Y-130931000D02*
X98078000Y-130931000D01*
X104410000Y-130971000D02*
X102240000Y-130971000D01*
X100280000Y-130971000D02*
X98110000Y-130971000D01*
X104378000Y-131011000D02*
X102240000Y-131011000D01*
X100280000Y-131011000D02*
X98142000Y-131011000D01*
X104344000Y-131051000D02*
X102240000Y-131051000D01*
X100280000Y-131051000D02*
X98176000Y-131051000D01*
X104310000Y-131091000D02*
X102240000Y-131091000D01*
X100280000Y-131091000D02*
X98210000Y-131091000D01*
X104275000Y-131131000D02*
X102240000Y-131131000D01*
X100280000Y-131131000D02*
X98245000Y-131131000D01*
X104239000Y-131171000D02*
X102240000Y-131171000D01*
X100280000Y-131171000D02*
X98281000Y-131171000D01*
X104202000Y-131211000D02*
X102240000Y-131211000D01*
X100280000Y-131211000D02*
X98318000Y-131211000D01*
X104164000Y-131251000D02*
X102240000Y-131251000D01*
X100280000Y-131251000D02*
X98356000Y-131251000D01*
X104125000Y-131291000D02*
X102240000Y-131291000D01*
X100280000Y-131291000D02*
X98395000Y-131291000D01*
X104084000Y-131331000D02*
X102240000Y-131331000D01*
X100280000Y-131331000D02*
X98436000Y-131331000D01*
X104043000Y-131371000D02*
X102240000Y-131371000D01*
X100280000Y-131371000D02*
X98477000Y-131371000D01*
X104000000Y-131411000D02*
X102240000Y-131411000D01*
X100280000Y-131411000D02*
X98520000Y-131411000D01*
X103957000Y-131451000D02*
X102240000Y-131451000D01*
X100280000Y-131451000D02*
X98563000Y-131451000D01*
X103912000Y-131491000D02*
X102240000Y-131491000D01*
X100280000Y-131491000D02*
X98608000Y-131491000D01*
X103865000Y-131531000D02*
X102240000Y-131531000D01*
X100280000Y-131531000D02*
X98655000Y-131531000D01*
X103817000Y-131571000D02*
X102240000Y-131571000D01*
X100280000Y-131571000D02*
X98703000Y-131571000D01*
X103768000Y-131611000D02*
X102240000Y-131611000D01*
X100280000Y-131611000D02*
X98752000Y-131611000D01*
X103717000Y-131651000D02*
X102240000Y-131651000D01*
X100280000Y-131651000D02*
X98803000Y-131651000D01*
X103664000Y-131691000D02*
X102240000Y-131691000D01*
X100280000Y-131691000D02*
X98856000Y-131691000D01*
X103609000Y-131731000D02*
X102240000Y-131731000D01*
X100280000Y-131731000D02*
X98911000Y-131731000D01*
X103553000Y-131771000D02*
X102240000Y-131771000D01*
X100280000Y-131771000D02*
X98967000Y-131771000D01*
X103494000Y-131811000D02*
X102240000Y-131811000D01*
X100280000Y-131811000D02*
X99026000Y-131811000D01*
X103433000Y-131851000D02*
X102240000Y-131851000D01*
X100280000Y-131851000D02*
X99087000Y-131851000D01*
X103369000Y-131891000D02*
X99151000Y-131891000D01*
X103303000Y-131931000D02*
X99217000Y-131931000D01*
X103234000Y-131971000D02*
X99286000Y-131971000D01*
X103162000Y-132011000D02*
X99358000Y-132011000D01*
X103086000Y-132051000D02*
X99434000Y-132051000D01*
X103005000Y-132091000D02*
X99515000Y-132091000D01*
X102920000Y-132131000D02*
X99600000Y-132131000D01*
X102830000Y-132171000D02*
X99690000Y-132171000D01*
X102733000Y-132211000D02*
X99787000Y-132211000D01*
X102629000Y-132251000D02*
X99891000Y-132251000D01*
X102514000Y-132291000D02*
X100006000Y-132291000D01*
X102387000Y-132331000D02*
X100133000Y-132331000D01*
X102243000Y-132371000D02*
X100277000Y-132371000D01*
X102074000Y-132411000D02*
X100446000Y-132411000D01*
X101858000Y-132451000D02*
X100662000Y-132451000D01*
X101506000Y-132491000D02*
X101014000Y-132491000D01*
X101260000Y-123710000D02*
X101260000Y-124910000D01*
X101910000Y-124310000D02*
X100610000Y-124310000D01*
X112597445Y-132326851D02*
G75*
G03X112600000Y-124493918I-1177445J3916851D01*
G01*
X110242555Y-132326851D02*
G75*
G02X110240000Y-124493918I1177445J3916851D01*
G01*
X110242555Y-132326851D02*
G75*
G03X112600000Y-132326082I1177445J3916851D01*
G01*
X115470000Y-128410000D02*
X107370000Y-128410000D01*
X115470000Y-128450000D02*
X107370000Y-128450000D01*
X115470000Y-128490000D02*
X107370000Y-128490000D01*
X115469000Y-128530000D02*
X107371000Y-128530000D01*
X115467000Y-128570000D02*
X107373000Y-128570000D01*
X115466000Y-128610000D02*
X107374000Y-128610000D01*
X115463000Y-128650000D02*
X107377000Y-128650000D01*
X115461000Y-128690000D02*
X107379000Y-128690000D01*
X115458000Y-128730000D02*
X107382000Y-128730000D01*
X115455000Y-128770000D02*
X107385000Y-128770000D01*
X115451000Y-128810000D02*
X107389000Y-128810000D01*
X115447000Y-128850000D02*
X107393000Y-128850000D01*
X115442000Y-128890000D02*
X107398000Y-128890000D01*
X115437000Y-128930000D02*
X107403000Y-128930000D01*
X115432000Y-128970000D02*
X107408000Y-128970000D01*
X115426000Y-129010000D02*
X107414000Y-129010000D01*
X115420000Y-129050000D02*
X107420000Y-129050000D01*
X115414000Y-129090000D02*
X107426000Y-129090000D01*
X115407000Y-129131000D02*
X107433000Y-129131000D01*
X115399000Y-129171000D02*
X107441000Y-129171000D01*
X115391000Y-129211000D02*
X107449000Y-129211000D01*
X115383000Y-129251000D02*
X107457000Y-129251000D01*
X115375000Y-129291000D02*
X107465000Y-129291000D01*
X115366000Y-129331000D02*
X107474000Y-129331000D01*
X115356000Y-129371000D02*
X107484000Y-129371000D01*
X115346000Y-129411000D02*
X107494000Y-129411000D01*
X115336000Y-129451000D02*
X107504000Y-129451000D01*
X115325000Y-129491000D02*
X107515000Y-129491000D01*
X115314000Y-129531000D02*
X107526000Y-129531000D01*
X115303000Y-129571000D02*
X107537000Y-129571000D01*
X115290000Y-129611000D02*
X107550000Y-129611000D01*
X115278000Y-129651000D02*
X107562000Y-129651000D01*
X115265000Y-129691000D02*
X107575000Y-129691000D01*
X115252000Y-129731000D02*
X107588000Y-129731000D01*
X115238000Y-129771000D02*
X107602000Y-129771000D01*
X115223000Y-129811000D02*
X107617000Y-129811000D01*
X115209000Y-129851000D02*
X107631000Y-129851000D01*
X115193000Y-129891000D02*
X107647000Y-129891000D01*
X115178000Y-129931000D02*
X112400000Y-129931000D01*
X110440000Y-129931000D02*
X107662000Y-129931000D01*
X115161000Y-129971000D02*
X112400000Y-129971000D01*
X110440000Y-129971000D02*
X107679000Y-129971000D01*
X115145000Y-130011000D02*
X112400000Y-130011000D01*
X110440000Y-130011000D02*
X107695000Y-130011000D01*
X115127000Y-130051000D02*
X112400000Y-130051000D01*
X110440000Y-130051000D02*
X107713000Y-130051000D01*
X115110000Y-130091000D02*
X112400000Y-130091000D01*
X110440000Y-130091000D02*
X107730000Y-130091000D01*
X115091000Y-130131000D02*
X112400000Y-130131000D01*
X110440000Y-130131000D02*
X107749000Y-130131000D01*
X115072000Y-130171000D02*
X112400000Y-130171000D01*
X110440000Y-130171000D02*
X107768000Y-130171000D01*
X115053000Y-130211000D02*
X112400000Y-130211000D01*
X110440000Y-130211000D02*
X107787000Y-130211000D01*
X115033000Y-130251000D02*
X112400000Y-130251000D01*
X110440000Y-130251000D02*
X107807000Y-130251000D01*
X115013000Y-130291000D02*
X112400000Y-130291000D01*
X110440000Y-130291000D02*
X107827000Y-130291000D01*
X114992000Y-130331000D02*
X112400000Y-130331000D01*
X110440000Y-130331000D02*
X107848000Y-130331000D01*
X114970000Y-130371000D02*
X112400000Y-130371000D01*
X110440000Y-130371000D02*
X107870000Y-130371000D01*
X114948000Y-130411000D02*
X112400000Y-130411000D01*
X110440000Y-130411000D02*
X107892000Y-130411000D01*
X114925000Y-130451000D02*
X112400000Y-130451000D01*
X110440000Y-130451000D02*
X107915000Y-130451000D01*
X114902000Y-130491000D02*
X112400000Y-130491000D01*
X110440000Y-130491000D02*
X107938000Y-130491000D01*
X114878000Y-130531000D02*
X112400000Y-130531000D01*
X110440000Y-130531000D02*
X107962000Y-130531000D01*
X114854000Y-130571000D02*
X112400000Y-130571000D01*
X110440000Y-130571000D02*
X107986000Y-130571000D01*
X114828000Y-130611000D02*
X112400000Y-130611000D01*
X110440000Y-130611000D02*
X108012000Y-130611000D01*
X114803000Y-130651000D02*
X112400000Y-130651000D01*
X110440000Y-130651000D02*
X108037000Y-130651000D01*
X114776000Y-130691000D02*
X112400000Y-130691000D01*
X110440000Y-130691000D02*
X108064000Y-130691000D01*
X114749000Y-130731000D02*
X112400000Y-130731000D01*
X110440000Y-130731000D02*
X108091000Y-130731000D01*
X114721000Y-130771000D02*
X112400000Y-130771000D01*
X110440000Y-130771000D02*
X108119000Y-130771000D01*
X114692000Y-130811000D02*
X112400000Y-130811000D01*
X110440000Y-130811000D02*
X108148000Y-130811000D01*
X114663000Y-130851000D02*
X112400000Y-130851000D01*
X110440000Y-130851000D02*
X108177000Y-130851000D01*
X114633000Y-130891000D02*
X112400000Y-130891000D01*
X110440000Y-130891000D02*
X108207000Y-130891000D01*
X114602000Y-130931000D02*
X112400000Y-130931000D01*
X110440000Y-130931000D02*
X108238000Y-130931000D01*
X114570000Y-130971000D02*
X112400000Y-130971000D01*
X110440000Y-130971000D02*
X108270000Y-130971000D01*
X114538000Y-131011000D02*
X112400000Y-131011000D01*
X110440000Y-131011000D02*
X108302000Y-131011000D01*
X114504000Y-131051000D02*
X112400000Y-131051000D01*
X110440000Y-131051000D02*
X108336000Y-131051000D01*
X114470000Y-131091000D02*
X112400000Y-131091000D01*
X110440000Y-131091000D02*
X108370000Y-131091000D01*
X114435000Y-131131000D02*
X112400000Y-131131000D01*
X110440000Y-131131000D02*
X108405000Y-131131000D01*
X114399000Y-131171000D02*
X112400000Y-131171000D01*
X110440000Y-131171000D02*
X108441000Y-131171000D01*
X114362000Y-131211000D02*
X112400000Y-131211000D01*
X110440000Y-131211000D02*
X108478000Y-131211000D01*
X114324000Y-131251000D02*
X112400000Y-131251000D01*
X110440000Y-131251000D02*
X108516000Y-131251000D01*
X114285000Y-131291000D02*
X112400000Y-131291000D01*
X110440000Y-131291000D02*
X108555000Y-131291000D01*
X114244000Y-131331000D02*
X112400000Y-131331000D01*
X110440000Y-131331000D02*
X108596000Y-131331000D01*
X114203000Y-131371000D02*
X112400000Y-131371000D01*
X110440000Y-131371000D02*
X108637000Y-131371000D01*
X114160000Y-131411000D02*
X112400000Y-131411000D01*
X110440000Y-131411000D02*
X108680000Y-131411000D01*
X114117000Y-131451000D02*
X112400000Y-131451000D01*
X110440000Y-131451000D02*
X108723000Y-131451000D01*
X114072000Y-131491000D02*
X112400000Y-131491000D01*
X110440000Y-131491000D02*
X108768000Y-131491000D01*
X114025000Y-131531000D02*
X112400000Y-131531000D01*
X110440000Y-131531000D02*
X108815000Y-131531000D01*
X113977000Y-131571000D02*
X112400000Y-131571000D01*
X110440000Y-131571000D02*
X108863000Y-131571000D01*
X113928000Y-131611000D02*
X112400000Y-131611000D01*
X110440000Y-131611000D02*
X108912000Y-131611000D01*
X113877000Y-131651000D02*
X112400000Y-131651000D01*
X110440000Y-131651000D02*
X108963000Y-131651000D01*
X113824000Y-131691000D02*
X112400000Y-131691000D01*
X110440000Y-131691000D02*
X109016000Y-131691000D01*
X113769000Y-131731000D02*
X112400000Y-131731000D01*
X110440000Y-131731000D02*
X109071000Y-131731000D01*
X113713000Y-131771000D02*
X112400000Y-131771000D01*
X110440000Y-131771000D02*
X109127000Y-131771000D01*
X113654000Y-131811000D02*
X112400000Y-131811000D01*
X110440000Y-131811000D02*
X109186000Y-131811000D01*
X113593000Y-131851000D02*
X112400000Y-131851000D01*
X110440000Y-131851000D02*
X109247000Y-131851000D01*
X113529000Y-131891000D02*
X109311000Y-131891000D01*
X113463000Y-131931000D02*
X109377000Y-131931000D01*
X113394000Y-131971000D02*
X109446000Y-131971000D01*
X113322000Y-132011000D02*
X109518000Y-132011000D01*
X113246000Y-132051000D02*
X109594000Y-132051000D01*
X113165000Y-132091000D02*
X109675000Y-132091000D01*
X113080000Y-132131000D02*
X109760000Y-132131000D01*
X112990000Y-132171000D02*
X109850000Y-132171000D01*
X112893000Y-132211000D02*
X109947000Y-132211000D01*
X112789000Y-132251000D02*
X110051000Y-132251000D01*
X112674000Y-132291000D02*
X110166000Y-132291000D01*
X112547000Y-132331000D02*
X110293000Y-132331000D01*
X112403000Y-132371000D02*
X110437000Y-132371000D01*
X112234000Y-132411000D02*
X110606000Y-132411000D01*
X112018000Y-132451000D02*
X110822000Y-132451000D01*
X111666000Y-132491000D02*
X111174000Y-132491000D01*
X111420000Y-123710000D02*
X111420000Y-124910000D01*
X112070000Y-124310000D02*
X110770000Y-124310000D01*
X127182445Y-132401851D02*
G75*
G03X127185000Y-124568918I-1177445J3916851D01*
G01*
X124827555Y-132401851D02*
G75*
G02X124825000Y-124568918I1177445J3916851D01*
G01*
X124827555Y-132401851D02*
G75*
G03X127185000Y-132401082I1177445J3916851D01*
G01*
X130055000Y-128485000D02*
X121955000Y-128485000D01*
X130055000Y-128525000D02*
X121955000Y-128525000D01*
X130055000Y-128565000D02*
X121955000Y-128565000D01*
X130054000Y-128605000D02*
X121956000Y-128605000D01*
X130052000Y-128645000D02*
X121958000Y-128645000D01*
X130051000Y-128685000D02*
X121959000Y-128685000D01*
X130048000Y-128725000D02*
X121962000Y-128725000D01*
X130046000Y-128765000D02*
X121964000Y-128765000D01*
X130043000Y-128805000D02*
X121967000Y-128805000D01*
X130040000Y-128845000D02*
X121970000Y-128845000D01*
X130036000Y-128885000D02*
X121974000Y-128885000D01*
X130032000Y-128925000D02*
X121978000Y-128925000D01*
X130027000Y-128965000D02*
X121983000Y-128965000D01*
X130022000Y-129005000D02*
X121988000Y-129005000D01*
X130017000Y-129045000D02*
X121993000Y-129045000D01*
X130011000Y-129085000D02*
X121999000Y-129085000D01*
X130005000Y-129125000D02*
X122005000Y-129125000D01*
X129999000Y-129165000D02*
X122011000Y-129165000D01*
X129992000Y-129206000D02*
X122018000Y-129206000D01*
X129984000Y-129246000D02*
X122026000Y-129246000D01*
X129976000Y-129286000D02*
X122034000Y-129286000D01*
X129968000Y-129326000D02*
X122042000Y-129326000D01*
X129960000Y-129366000D02*
X122050000Y-129366000D01*
X129951000Y-129406000D02*
X122059000Y-129406000D01*
X129941000Y-129446000D02*
X122069000Y-129446000D01*
X129931000Y-129486000D02*
X122079000Y-129486000D01*
X129921000Y-129526000D02*
X122089000Y-129526000D01*
X129910000Y-129566000D02*
X122100000Y-129566000D01*
X129899000Y-129606000D02*
X122111000Y-129606000D01*
X129888000Y-129646000D02*
X122122000Y-129646000D01*
X129875000Y-129686000D02*
X122135000Y-129686000D01*
X129863000Y-129726000D02*
X122147000Y-129726000D01*
X129850000Y-129766000D02*
X122160000Y-129766000D01*
X129837000Y-129806000D02*
X122173000Y-129806000D01*
X129823000Y-129846000D02*
X122187000Y-129846000D01*
X129808000Y-129886000D02*
X122202000Y-129886000D01*
X129794000Y-129926000D02*
X122216000Y-129926000D01*
X129778000Y-129966000D02*
X122232000Y-129966000D01*
X129763000Y-130006000D02*
X126985000Y-130006000D01*
X125025000Y-130006000D02*
X122247000Y-130006000D01*
X129746000Y-130046000D02*
X126985000Y-130046000D01*
X125025000Y-130046000D02*
X122264000Y-130046000D01*
X129730000Y-130086000D02*
X126985000Y-130086000D01*
X125025000Y-130086000D02*
X122280000Y-130086000D01*
X129712000Y-130126000D02*
X126985000Y-130126000D01*
X125025000Y-130126000D02*
X122298000Y-130126000D01*
X129695000Y-130166000D02*
X126985000Y-130166000D01*
X125025000Y-130166000D02*
X122315000Y-130166000D01*
X129676000Y-130206000D02*
X126985000Y-130206000D01*
X125025000Y-130206000D02*
X122334000Y-130206000D01*
X129657000Y-130246000D02*
X126985000Y-130246000D01*
X125025000Y-130246000D02*
X122353000Y-130246000D01*
X129638000Y-130286000D02*
X126985000Y-130286000D01*
X125025000Y-130286000D02*
X122372000Y-130286000D01*
X129618000Y-130326000D02*
X126985000Y-130326000D01*
X125025000Y-130326000D02*
X122392000Y-130326000D01*
X129598000Y-130366000D02*
X126985000Y-130366000D01*
X125025000Y-130366000D02*
X122412000Y-130366000D01*
X129577000Y-130406000D02*
X126985000Y-130406000D01*
X125025000Y-130406000D02*
X122433000Y-130406000D01*
X129555000Y-130446000D02*
X126985000Y-130446000D01*
X125025000Y-130446000D02*
X122455000Y-130446000D01*
X129533000Y-130486000D02*
X126985000Y-130486000D01*
X125025000Y-130486000D02*
X122477000Y-130486000D01*
X129510000Y-130526000D02*
X126985000Y-130526000D01*
X125025000Y-130526000D02*
X122500000Y-130526000D01*
X129487000Y-130566000D02*
X126985000Y-130566000D01*
X125025000Y-130566000D02*
X122523000Y-130566000D01*
X129463000Y-130606000D02*
X126985000Y-130606000D01*
X125025000Y-130606000D02*
X122547000Y-130606000D01*
X129439000Y-130646000D02*
X126985000Y-130646000D01*
X125025000Y-130646000D02*
X122571000Y-130646000D01*
X129413000Y-130686000D02*
X126985000Y-130686000D01*
X125025000Y-130686000D02*
X122597000Y-130686000D01*
X129388000Y-130726000D02*
X126985000Y-130726000D01*
X125025000Y-130726000D02*
X122622000Y-130726000D01*
X129361000Y-130766000D02*
X126985000Y-130766000D01*
X125025000Y-130766000D02*
X122649000Y-130766000D01*
X129334000Y-130806000D02*
X126985000Y-130806000D01*
X125025000Y-130806000D02*
X122676000Y-130806000D01*
X129306000Y-130846000D02*
X126985000Y-130846000D01*
X125025000Y-130846000D02*
X122704000Y-130846000D01*
X129277000Y-130886000D02*
X126985000Y-130886000D01*
X125025000Y-130886000D02*
X122733000Y-130886000D01*
X129248000Y-130926000D02*
X126985000Y-130926000D01*
X125025000Y-130926000D02*
X122762000Y-130926000D01*
X129218000Y-130966000D02*
X126985000Y-130966000D01*
X125025000Y-130966000D02*
X122792000Y-130966000D01*
X129187000Y-131006000D02*
X126985000Y-131006000D01*
X125025000Y-131006000D02*
X122823000Y-131006000D01*
X129155000Y-131046000D02*
X126985000Y-131046000D01*
X125025000Y-131046000D02*
X122855000Y-131046000D01*
X129123000Y-131086000D02*
X126985000Y-131086000D01*
X125025000Y-131086000D02*
X122887000Y-131086000D01*
X129089000Y-131126000D02*
X126985000Y-131126000D01*
X125025000Y-131126000D02*
X122921000Y-131126000D01*
X129055000Y-131166000D02*
X126985000Y-131166000D01*
X125025000Y-131166000D02*
X122955000Y-131166000D01*
X129020000Y-131206000D02*
X126985000Y-131206000D01*
X125025000Y-131206000D02*
X122990000Y-131206000D01*
X128984000Y-131246000D02*
X126985000Y-131246000D01*
X125025000Y-131246000D02*
X123026000Y-131246000D01*
X128947000Y-131286000D02*
X126985000Y-131286000D01*
X125025000Y-131286000D02*
X123063000Y-131286000D01*
X128909000Y-131326000D02*
X126985000Y-131326000D01*
X125025000Y-131326000D02*
X123101000Y-131326000D01*
X128870000Y-131366000D02*
X126985000Y-131366000D01*
X125025000Y-131366000D02*
X123140000Y-131366000D01*
X128829000Y-131406000D02*
X126985000Y-131406000D01*
X125025000Y-131406000D02*
X123181000Y-131406000D01*
X128788000Y-131446000D02*
X126985000Y-131446000D01*
X125025000Y-131446000D02*
X123222000Y-131446000D01*
X128745000Y-131486000D02*
X126985000Y-131486000D01*
X125025000Y-131486000D02*
X123265000Y-131486000D01*
X128702000Y-131526000D02*
X126985000Y-131526000D01*
X125025000Y-131526000D02*
X123308000Y-131526000D01*
X128657000Y-131566000D02*
X126985000Y-131566000D01*
X125025000Y-131566000D02*
X123353000Y-131566000D01*
X128610000Y-131606000D02*
X126985000Y-131606000D01*
X125025000Y-131606000D02*
X123400000Y-131606000D01*
X128562000Y-131646000D02*
X126985000Y-131646000D01*
X125025000Y-131646000D02*
X123448000Y-131646000D01*
X128513000Y-131686000D02*
X126985000Y-131686000D01*
X125025000Y-131686000D02*
X123497000Y-131686000D01*
X128462000Y-131726000D02*
X126985000Y-131726000D01*
X125025000Y-131726000D02*
X123548000Y-131726000D01*
X128409000Y-131766000D02*
X126985000Y-131766000D01*
X125025000Y-131766000D02*
X123601000Y-131766000D01*
X128354000Y-131806000D02*
X126985000Y-131806000D01*
X125025000Y-131806000D02*
X123656000Y-131806000D01*
X128298000Y-131846000D02*
X126985000Y-131846000D01*
X125025000Y-131846000D02*
X123712000Y-131846000D01*
X128239000Y-131886000D02*
X126985000Y-131886000D01*
X125025000Y-131886000D02*
X123771000Y-131886000D01*
X128178000Y-131926000D02*
X126985000Y-131926000D01*
X125025000Y-131926000D02*
X123832000Y-131926000D01*
X128114000Y-131966000D02*
X123896000Y-131966000D01*
X128048000Y-132006000D02*
X123962000Y-132006000D01*
X127979000Y-132046000D02*
X124031000Y-132046000D01*
X127907000Y-132086000D02*
X124103000Y-132086000D01*
X127831000Y-132126000D02*
X124179000Y-132126000D01*
X127750000Y-132166000D02*
X124260000Y-132166000D01*
X127665000Y-132206000D02*
X124345000Y-132206000D01*
X127575000Y-132246000D02*
X124435000Y-132246000D01*
X127478000Y-132286000D02*
X124532000Y-132286000D01*
X127374000Y-132326000D02*
X124636000Y-132326000D01*
X127259000Y-132366000D02*
X124751000Y-132366000D01*
X127132000Y-132406000D02*
X124878000Y-132406000D01*
X126988000Y-132446000D02*
X125022000Y-132446000D01*
X126819000Y-132486000D02*
X125191000Y-132486000D01*
X126603000Y-132526000D02*
X125407000Y-132526000D01*
X126251000Y-132566000D02*
X125759000Y-132566000D01*
X126005000Y-123785000D02*
X126005000Y-124985000D01*
X126655000Y-124385000D02*
X125355000Y-124385000D01*
D12*
X191850000Y-99755000D02*
X214350000Y-99755000D01*
X214350000Y-99755000D02*
X214350000Y-105255000D01*
X214350000Y-105255000D02*
X191850000Y-105255000D01*
X191850000Y-105255000D02*
X191850000Y-99755000D01*
X203100000Y-99755000D02*
X203100000Y-105255000D01*
D11*
X131315000Y-126465000D02*
X136515000Y-126465000D01*
X131315000Y-108625000D02*
X131315000Y-126465000D01*
X136515000Y-106025000D02*
X136515000Y-126465000D01*
X131315000Y-108625000D02*
X133915000Y-108625000D01*
X133915000Y-108625000D02*
X133915000Y-106025000D01*
X133915000Y-106025000D02*
X136515000Y-106025000D01*
X131315000Y-107355000D02*
X131315000Y-106025000D01*
X131315000Y-106025000D02*
X132645000Y-106025000D01*
X102235000Y-93405000D02*
X112455000Y-93405000D01*
X112455000Y-93405000D02*
X112455000Y-90745000D01*
X112455000Y-90745000D02*
X102235000Y-90745000D01*
X102235000Y-90745000D02*
X102235000Y-93405000D01*
X100965000Y-93405000D02*
X99635000Y-93405000D01*
X99635000Y-93405000D02*
X99635000Y-92075000D01*
X173375000Y-106175000D02*
X173375000Y-108795000D01*
X173375000Y-108795000D02*
X179795000Y-108795000D01*
X179795000Y-108795000D02*
X179795000Y-106175000D01*
X179795000Y-106175000D02*
X173375000Y-106175000D01*
X172485000Y-107485000D02*
X173375000Y-107485000D01*
X180685000Y-107485000D02*
X179795000Y-107485000D01*
X194805000Y-79680000D02*
X197425000Y-79680000D01*
X197425000Y-79680000D02*
X197425000Y-73260000D01*
X197425000Y-73260000D02*
X194805000Y-73260000D01*
X194805000Y-73260000D02*
X194805000Y-79680000D01*
X196115000Y-80570000D02*
X196115000Y-79680000D01*
X196115000Y-72370000D02*
X196115000Y-73260000D01*
X202505000Y-73260000D02*
X199885000Y-73260000D01*
X199885000Y-73260000D02*
X199885000Y-79680000D01*
X199885000Y-79680000D02*
X202505000Y-79680000D01*
X202505000Y-79680000D02*
X202505000Y-73260000D01*
X201195000Y-72370000D02*
X201195000Y-73260000D01*
X201195000Y-80570000D02*
X201195000Y-79680000D01*
X210045000Y-79680000D02*
X212665000Y-79680000D01*
X212665000Y-79680000D02*
X212665000Y-73260000D01*
X212665000Y-73260000D02*
X210045000Y-73260000D01*
X210045000Y-73260000D02*
X210045000Y-79680000D01*
X211355000Y-80570000D02*
X211355000Y-79680000D01*
X211355000Y-72370000D02*
X211355000Y-73260000D01*
X207585000Y-73260000D02*
X204965000Y-73260000D01*
X204965000Y-73260000D02*
X204965000Y-79680000D01*
X204965000Y-79680000D02*
X207585000Y-79680000D01*
X207585000Y-79680000D02*
X207585000Y-73260000D01*
X206275000Y-72370000D02*
X206275000Y-73260000D01*
X206275000Y-80570000D02*
X206275000Y-79680000D01*
X97755000Y-107275000D02*
X97755000Y-109895000D01*
X97755000Y-109895000D02*
X104175000Y-109895000D01*
X104175000Y-109895000D02*
X104175000Y-107275000D01*
X104175000Y-107275000D02*
X97755000Y-107275000D01*
X96865000Y-108585000D02*
X97755000Y-108585000D01*
X105065000Y-108585000D02*
X104175000Y-108585000D01*
X149160000Y-92310000D02*
X149160000Y-89690000D01*
X149160000Y-89690000D02*
X142740000Y-89690000D01*
X142740000Y-89690000D02*
X142740000Y-92310000D01*
X142740000Y-92310000D02*
X149160000Y-92310000D01*
X150050000Y-91000000D02*
X149160000Y-91000000D01*
X141850000Y-91000000D02*
X142740000Y-91000000D01*
X149160000Y-87310000D02*
X149160000Y-84690000D01*
X149160000Y-84690000D02*
X142740000Y-84690000D01*
X142740000Y-84690000D02*
X142740000Y-87310000D01*
X142740000Y-87310000D02*
X149160000Y-87310000D01*
X150050000Y-86000000D02*
X149160000Y-86000000D01*
X141850000Y-86000000D02*
X142740000Y-86000000D01*
X166965000Y-87665000D02*
X169585000Y-87665000D01*
X169585000Y-87665000D02*
X169585000Y-81245000D01*
X169585000Y-81245000D02*
X166965000Y-81245000D01*
X166965000Y-81245000D02*
X166965000Y-87665000D01*
X168275000Y-88555000D02*
X168275000Y-87665000D01*
X168275000Y-80355000D02*
X168275000Y-81245000D01*
X172680000Y-87665000D02*
X175300000Y-87665000D01*
X175300000Y-87665000D02*
X175300000Y-81245000D01*
X175300000Y-81245000D02*
X172680000Y-81245000D01*
X172680000Y-81245000D02*
X172680000Y-87665000D01*
X173990000Y-88555000D02*
X173990000Y-87665000D01*
X173990000Y-80355000D02*
X173990000Y-81245000D01*
X169585000Y-93945000D02*
X166965000Y-93945000D01*
X166965000Y-93945000D02*
X166965000Y-100365000D01*
X166965000Y-100365000D02*
X169585000Y-100365000D01*
X169585000Y-100365000D02*
X169585000Y-93945000D01*
X168275000Y-93055000D02*
X168275000Y-93945000D01*
X168275000Y-101255000D02*
X168275000Y-100365000D01*
X175300000Y-93945000D02*
X172680000Y-93945000D01*
X172680000Y-93945000D02*
X172680000Y-100365000D01*
X172680000Y-100365000D02*
X175300000Y-100365000D01*
X175300000Y-100365000D02*
X175300000Y-93945000D01*
X173990000Y-93055000D02*
X173990000Y-93945000D01*
X173990000Y-101255000D02*
X173990000Y-100365000D01*
X180135000Y-117295000D02*
X180135000Y-114675000D01*
X180135000Y-114675000D02*
X173715000Y-114675000D01*
X173715000Y-114675000D02*
X173715000Y-117295000D01*
X173715000Y-117295000D02*
X180135000Y-117295000D01*
X181025000Y-115985000D02*
X180135000Y-115985000D01*
X172825000Y-115985000D02*
X173715000Y-115985000D01*
D12*
X117354000Y-121159000D02*
X120783000Y-121159000D01*
X117354000Y-130811000D02*
X120783000Y-130811000D01*
X116211000Y-120651000D02*
X116211000Y-131319000D01*
X117227000Y-124207000D02*
X115957000Y-124207000D01*
X117227000Y-127763000D02*
X115957000Y-127763000D01*
X117354000Y-131319000D02*
X117354000Y-120651000D01*
X120783000Y-120651000D02*
X120783000Y-131319000D01*
X115957000Y-131319000D02*
X120783000Y-131319000D01*
X115957000Y-120651000D02*
X120783000Y-120651000D01*
X115957000Y-120651000D02*
X115957000Y-131319000D01*
X209685000Y-112285000D02*
X207145000Y-112285000D01*
X204605000Y-112285000D02*
X199525000Y-112285000D01*
X208335000Y-107985000D02*
X209675000Y-110485000D01*
X198335000Y-107985000D02*
X196995000Y-110485000D01*
X212685000Y-113685000D02*
X193985000Y-113685000D01*
X193985000Y-113685000D02*
X193985000Y-107985000D01*
X193985000Y-107985000D02*
X212685000Y-107985000D01*
X212685000Y-107985000D02*
X212685000Y-113685000D01*
D11*
X185675000Y-57795000D02*
G75*
G02X185675000Y-59795000I0J-1000000D01*
G01*
X185675000Y-59795000D02*
X185675000Y-61445000D01*
X185675000Y-61445000D02*
X193415000Y-61445000D01*
X193415000Y-61445000D02*
X193415000Y-56145000D01*
X193415000Y-56145000D02*
X185675000Y-56145000D01*
X185675000Y-56145000D02*
X185675000Y-57795000D01*
X202531851Y-89897555D02*
G75*
G03X194698918Y-89895000I-3916851J-1177445D01*
G01*
X202531851Y-92252445D02*
G75*
G02X194698918Y-92255000I-3916851J1177445D01*
G01*
X202531851Y-92252445D02*
G75*
G03X202531082Y-89895000I-3916851J1177445D01*
G01*
X198615000Y-87025000D02*
X198615000Y-95125000D01*
X198655000Y-87025000D02*
X198655000Y-95125000D01*
X198695000Y-87025000D02*
X198695000Y-95125000D01*
X198735000Y-87026000D02*
X198735000Y-95124000D01*
X198775000Y-87028000D02*
X198775000Y-95122000D01*
X198815000Y-87029000D02*
X198815000Y-95121000D01*
X198855000Y-87032000D02*
X198855000Y-95118000D01*
X198895000Y-87034000D02*
X198895000Y-95116000D01*
X198935000Y-87037000D02*
X198935000Y-95113000D01*
X198975000Y-87040000D02*
X198975000Y-95110000D01*
X199015000Y-87044000D02*
X199015000Y-95106000D01*
X199055000Y-87048000D02*
X199055000Y-95102000D01*
X199095000Y-87053000D02*
X199095000Y-95097000D01*
X199135000Y-87058000D02*
X199135000Y-95092000D01*
X199175000Y-87063000D02*
X199175000Y-95087000D01*
X199215000Y-87069000D02*
X199215000Y-95081000D01*
X199255000Y-87075000D02*
X199255000Y-95075000D01*
X199295000Y-87081000D02*
X199295000Y-95069000D01*
X199336000Y-87088000D02*
X199336000Y-95062000D01*
X199376000Y-87096000D02*
X199376000Y-95054000D01*
X199416000Y-87104000D02*
X199416000Y-95046000D01*
X199456000Y-87112000D02*
X199456000Y-95038000D01*
X199496000Y-87120000D02*
X199496000Y-95030000D01*
X199536000Y-87129000D02*
X199536000Y-95021000D01*
X199576000Y-87139000D02*
X199576000Y-95011000D01*
X199616000Y-87149000D02*
X199616000Y-95001000D01*
X199656000Y-87159000D02*
X199656000Y-94991000D01*
X199696000Y-87170000D02*
X199696000Y-94980000D01*
X199736000Y-87181000D02*
X199736000Y-94969000D01*
X199776000Y-87192000D02*
X199776000Y-94958000D01*
X199816000Y-87205000D02*
X199816000Y-94945000D01*
X199856000Y-87217000D02*
X199856000Y-94933000D01*
X199896000Y-87230000D02*
X199896000Y-94920000D01*
X199936000Y-87243000D02*
X199936000Y-94907000D01*
X199976000Y-87257000D02*
X199976000Y-94893000D01*
X200016000Y-87272000D02*
X200016000Y-94878000D01*
X200056000Y-87286000D02*
X200056000Y-94864000D01*
X200096000Y-87302000D02*
X200096000Y-94848000D01*
X200136000Y-87317000D02*
X200136000Y-90095000D01*
X200136000Y-92055000D02*
X200136000Y-94833000D01*
X200176000Y-87334000D02*
X200176000Y-90095000D01*
X200176000Y-92055000D02*
X200176000Y-94816000D01*
X200216000Y-87350000D02*
X200216000Y-90095000D01*
X200216000Y-92055000D02*
X200216000Y-94800000D01*
X200256000Y-87368000D02*
X200256000Y-90095000D01*
X200256000Y-92055000D02*
X200256000Y-94782000D01*
X200296000Y-87385000D02*
X200296000Y-90095000D01*
X200296000Y-92055000D02*
X200296000Y-94765000D01*
X200336000Y-87404000D02*
X200336000Y-90095000D01*
X200336000Y-92055000D02*
X200336000Y-94746000D01*
X200376000Y-87423000D02*
X200376000Y-90095000D01*
X200376000Y-92055000D02*
X200376000Y-94727000D01*
X200416000Y-87442000D02*
X200416000Y-90095000D01*
X200416000Y-92055000D02*
X200416000Y-94708000D01*
X200456000Y-87462000D02*
X200456000Y-90095000D01*
X200456000Y-92055000D02*
X200456000Y-94688000D01*
X200496000Y-87482000D02*
X200496000Y-90095000D01*
X200496000Y-92055000D02*
X200496000Y-94668000D01*
X200536000Y-87503000D02*
X200536000Y-90095000D01*
X200536000Y-92055000D02*
X200536000Y-94647000D01*
X200576000Y-87525000D02*
X200576000Y-90095000D01*
X200576000Y-92055000D02*
X200576000Y-94625000D01*
X200616000Y-87547000D02*
X200616000Y-90095000D01*
X200616000Y-92055000D02*
X200616000Y-94603000D01*
X200656000Y-87570000D02*
X200656000Y-90095000D01*
X200656000Y-92055000D02*
X200656000Y-94580000D01*
X200696000Y-87593000D02*
X200696000Y-90095000D01*
X200696000Y-92055000D02*
X200696000Y-94557000D01*
X200736000Y-87617000D02*
X200736000Y-90095000D01*
X200736000Y-92055000D02*
X200736000Y-94533000D01*
X200776000Y-87641000D02*
X200776000Y-90095000D01*
X200776000Y-92055000D02*
X200776000Y-94509000D01*
X200816000Y-87667000D02*
X200816000Y-90095000D01*
X200816000Y-92055000D02*
X200816000Y-94483000D01*
X200856000Y-87692000D02*
X200856000Y-90095000D01*
X200856000Y-92055000D02*
X200856000Y-94458000D01*
X200896000Y-87719000D02*
X200896000Y-90095000D01*
X200896000Y-92055000D02*
X200896000Y-94431000D01*
X200936000Y-87746000D02*
X200936000Y-90095000D01*
X200936000Y-92055000D02*
X200936000Y-94404000D01*
X200976000Y-87774000D02*
X200976000Y-90095000D01*
X200976000Y-92055000D02*
X200976000Y-94376000D01*
X201016000Y-87803000D02*
X201016000Y-90095000D01*
X201016000Y-92055000D02*
X201016000Y-94347000D01*
X201056000Y-87832000D02*
X201056000Y-90095000D01*
X201056000Y-92055000D02*
X201056000Y-94318000D01*
X201096000Y-87862000D02*
X201096000Y-90095000D01*
X201096000Y-92055000D02*
X201096000Y-94288000D01*
X201136000Y-87893000D02*
X201136000Y-90095000D01*
X201136000Y-92055000D02*
X201136000Y-94257000D01*
X201176000Y-87925000D02*
X201176000Y-90095000D01*
X201176000Y-92055000D02*
X201176000Y-94225000D01*
X201216000Y-87957000D02*
X201216000Y-90095000D01*
X201216000Y-92055000D02*
X201216000Y-94193000D01*
X201256000Y-87991000D02*
X201256000Y-90095000D01*
X201256000Y-92055000D02*
X201256000Y-94159000D01*
X201296000Y-88025000D02*
X201296000Y-90095000D01*
X201296000Y-92055000D02*
X201296000Y-94125000D01*
X201336000Y-88060000D02*
X201336000Y-90095000D01*
X201336000Y-92055000D02*
X201336000Y-94090000D01*
X201376000Y-88096000D02*
X201376000Y-90095000D01*
X201376000Y-92055000D02*
X201376000Y-94054000D01*
X201416000Y-88133000D02*
X201416000Y-90095000D01*
X201416000Y-92055000D02*
X201416000Y-94017000D01*
X201456000Y-88171000D02*
X201456000Y-90095000D01*
X201456000Y-92055000D02*
X201456000Y-93979000D01*
X201496000Y-88210000D02*
X201496000Y-90095000D01*
X201496000Y-92055000D02*
X201496000Y-93940000D01*
X201536000Y-88251000D02*
X201536000Y-90095000D01*
X201536000Y-92055000D02*
X201536000Y-93899000D01*
X201576000Y-88292000D02*
X201576000Y-90095000D01*
X201576000Y-92055000D02*
X201576000Y-93858000D01*
X201616000Y-88335000D02*
X201616000Y-90095000D01*
X201616000Y-92055000D02*
X201616000Y-93815000D01*
X201656000Y-88378000D02*
X201656000Y-90095000D01*
X201656000Y-92055000D02*
X201656000Y-93772000D01*
X201696000Y-88423000D02*
X201696000Y-90095000D01*
X201696000Y-92055000D02*
X201696000Y-93727000D01*
X201736000Y-88470000D02*
X201736000Y-90095000D01*
X201736000Y-92055000D02*
X201736000Y-93680000D01*
X201776000Y-88518000D02*
X201776000Y-90095000D01*
X201776000Y-92055000D02*
X201776000Y-93632000D01*
X201816000Y-88567000D02*
X201816000Y-90095000D01*
X201816000Y-92055000D02*
X201816000Y-93583000D01*
X201856000Y-88618000D02*
X201856000Y-90095000D01*
X201856000Y-92055000D02*
X201856000Y-93532000D01*
X201896000Y-88671000D02*
X201896000Y-90095000D01*
X201896000Y-92055000D02*
X201896000Y-93479000D01*
X201936000Y-88726000D02*
X201936000Y-90095000D01*
X201936000Y-92055000D02*
X201936000Y-93424000D01*
X201976000Y-88782000D02*
X201976000Y-90095000D01*
X201976000Y-92055000D02*
X201976000Y-93368000D01*
X202016000Y-88841000D02*
X202016000Y-90095000D01*
X202016000Y-92055000D02*
X202016000Y-93309000D01*
X202056000Y-88902000D02*
X202056000Y-90095000D01*
X202056000Y-92055000D02*
X202056000Y-93248000D01*
X202096000Y-88966000D02*
X202096000Y-93184000D01*
X202136000Y-89032000D02*
X202136000Y-93118000D01*
X202176000Y-89101000D02*
X202176000Y-93049000D01*
X202216000Y-89173000D02*
X202216000Y-92977000D01*
X202256000Y-89249000D02*
X202256000Y-92901000D01*
X202296000Y-89330000D02*
X202296000Y-92820000D01*
X202336000Y-89415000D02*
X202336000Y-92735000D01*
X202376000Y-89505000D02*
X202376000Y-92645000D01*
X202416000Y-89602000D02*
X202416000Y-92548000D01*
X202456000Y-89706000D02*
X202456000Y-92444000D01*
X202496000Y-89821000D02*
X202496000Y-92329000D01*
X202536000Y-89948000D02*
X202536000Y-92202000D01*
X202576000Y-90092000D02*
X202576000Y-92058000D01*
X202616000Y-90261000D02*
X202616000Y-91889000D01*
X202656000Y-90477000D02*
X202656000Y-91673000D01*
X202696000Y-90829000D02*
X202696000Y-91321000D01*
X193915000Y-91075000D02*
X195115000Y-91075000D01*
X194515000Y-90425000D02*
X194515000Y-91725000D01*
X180135000Y-122295000D02*
X180135000Y-119675000D01*
X180135000Y-119675000D02*
X173715000Y-119675000D01*
X173715000Y-119675000D02*
X173715000Y-122295000D01*
X173715000Y-122295000D02*
X180135000Y-122295000D01*
X181025000Y-120985000D02*
X180135000Y-120985000D01*
X172825000Y-120985000D02*
X173715000Y-120985000D01*
D12*
X202685000Y-121535000D02*
X200145000Y-121535000D01*
X197605000Y-121535000D02*
X192525000Y-121535000D01*
X201335000Y-117235000D02*
X202675000Y-119735000D01*
X191335000Y-117235000D02*
X189995000Y-119735000D01*
X205685000Y-122935000D02*
X186985000Y-122935000D01*
X186985000Y-122935000D02*
X186985000Y-117235000D01*
X186985000Y-117235000D02*
X205685000Y-117235000D01*
X205685000Y-117235000D02*
X205685000Y-122935000D01*
X107155000Y-138485000D02*
X106755000Y-138485000D01*
X108255000Y-134985000D02*
X108255000Y-141985000D01*
X107155000Y-134985000D02*
X107155000Y-141985000D01*
X114355000Y-134985000D02*
X106755000Y-134985000D01*
X106755000Y-141985000D02*
X114355000Y-141985000D01*
X114355000Y-141985000D02*
X114355000Y-134985000D01*
D11*
X156150000Y-93405000D02*
X161350000Y-93405000D01*
X156150000Y-85725000D02*
X156150000Y-93405000D01*
X161350000Y-83125000D02*
X161350000Y-93405000D01*
X156150000Y-85725000D02*
X158750000Y-85725000D01*
X158750000Y-85725000D02*
X158750000Y-83125000D01*
X158750000Y-83125000D02*
X161350000Y-83125000D01*
X156150000Y-84455000D02*
X156150000Y-83125000D01*
X156150000Y-83125000D02*
X157480000Y-83125000D01*
D12*
X134215000Y-133985000D02*
X134215000Y-142985000D01*
X134215000Y-142985000D02*
X136715000Y-142985000D01*
X175715000Y-142985000D02*
X175715000Y-133985000D01*
X175715000Y-133985000D02*
X173215000Y-133985000D01*
X136755000Y-142984999D02*
X175755000Y-142985000D01*
X173215000Y-133985001D02*
X134215000Y-133985000D01*
X160048095Y-104622381D02*
X160048095Y-105431905D01*
X160095714Y-105527143D01*
X160143333Y-105574762D01*
X160238571Y-105622381D01*
X160429048Y-105622381D01*
X160524286Y-105574762D01*
X160571905Y-105527143D01*
X160619524Y-105431905D01*
X160619524Y-104622381D01*
X161048095Y-104717619D02*
X161095714Y-104670000D01*
X161190952Y-104622381D01*
X161429048Y-104622381D01*
X161524286Y-104670000D01*
X161571905Y-104717619D01*
X161619524Y-104812857D01*
X161619524Y-104908095D01*
X161571905Y-105050952D01*
X161000476Y-105622381D01*
X161619524Y-105622381D01*
X185157381Y-135318333D02*
X185871667Y-135318333D01*
X186014524Y-135365953D01*
X186109762Y-135461191D01*
X186157381Y-135604048D01*
X186157381Y-135699286D01*
X185157381Y-134937381D02*
X185157381Y-134270714D01*
X186157381Y-134699286D01*
X97497381Y-54794523D02*
X98211667Y-54794523D01*
X98354524Y-54842143D01*
X98449762Y-54937381D01*
X98497381Y-55080238D01*
X98497381Y-55175476D01*
X98497381Y-53794523D02*
X98497381Y-54365952D01*
X98497381Y-54080238D02*
X97497381Y-54080238D01*
X97640238Y-54175476D01*
X97735476Y-54270714D01*
X97783095Y-54365952D01*
X97497381Y-53175476D02*
X97497381Y-53080237D01*
X97545000Y-52984999D01*
X97592619Y-52937380D01*
X97687857Y-52889761D01*
X97878333Y-52842142D01*
X98116429Y-52842142D01*
X98306905Y-52889761D01*
X98402143Y-52937380D01*
X98449762Y-52984999D01*
X98497381Y-53080237D01*
X98497381Y-53175476D01*
X98449762Y-53270714D01*
X98402143Y-53318333D01*
X98306905Y-53365952D01*
X98116429Y-53413571D01*
X97878333Y-53413571D01*
X97687857Y-53365952D01*
X97592619Y-53318333D01*
X97545000Y-53270714D01*
X97497381Y-53175476D01*
X106927143Y-128576666D02*
X106974762Y-128624285D01*
X107022381Y-128767142D01*
X107022381Y-128862380D01*
X106974762Y-129005238D01*
X106879524Y-129100476D01*
X106784286Y-129148095D01*
X106593810Y-129195714D01*
X106450952Y-129195714D01*
X106260476Y-129148095D01*
X106165238Y-129100476D01*
X106070000Y-129005238D01*
X106022381Y-128862380D01*
X106022381Y-128767142D01*
X106070000Y-128624285D01*
X106117619Y-128576666D01*
X107022381Y-127624285D02*
X107022381Y-128195714D01*
X107022381Y-127910000D02*
X106022381Y-127910000D01*
X106165238Y-128005238D01*
X106260476Y-128100476D01*
X106308095Y-128195714D01*
X117087143Y-128576666D02*
X117134762Y-128624285D01*
X117182381Y-128767142D01*
X117182381Y-128862380D01*
X117134762Y-129005238D01*
X117039524Y-129100476D01*
X116944286Y-129148095D01*
X116753810Y-129195714D01*
X116610952Y-129195714D01*
X116420476Y-129148095D01*
X116325238Y-129100476D01*
X116230000Y-129005238D01*
X116182381Y-128862380D01*
X116182381Y-128767142D01*
X116230000Y-128624285D01*
X116277619Y-128576666D01*
X116277619Y-128195714D02*
X116230000Y-128148095D01*
X116182381Y-128052857D01*
X116182381Y-127814761D01*
X116230000Y-127719523D01*
X116277619Y-127671904D01*
X116372857Y-127624285D01*
X116468095Y-127624285D01*
X116610952Y-127671904D01*
X117182381Y-128243333D01*
X117182381Y-127624285D01*
X131672143Y-128651666D02*
X131719762Y-128699285D01*
X131767381Y-128842142D01*
X131767381Y-128937380D01*
X131719762Y-129080238D01*
X131624524Y-129175476D01*
X131529286Y-129223095D01*
X131338810Y-129270714D01*
X131195952Y-129270714D01*
X131005476Y-129223095D01*
X130910238Y-129175476D01*
X130815000Y-129080238D01*
X130767381Y-128937380D01*
X130767381Y-128842142D01*
X130815000Y-128699285D01*
X130862619Y-128651666D01*
X130767381Y-128318333D02*
X130767381Y-127699285D01*
X131148333Y-128032619D01*
X131148333Y-127889761D01*
X131195952Y-127794523D01*
X131243571Y-127746904D01*
X131338810Y-127699285D01*
X131576905Y-127699285D01*
X131672143Y-127746904D01*
X131719762Y-127794523D01*
X131767381Y-127889761D01*
X131767381Y-128175476D01*
X131719762Y-128270714D01*
X131672143Y-128318333D01*
X202214286Y-106997857D02*
X202214286Y-105797857D01*
X202500001Y-105797857D01*
X202671429Y-105855000D01*
X202785715Y-105969286D01*
X202842858Y-106083571D01*
X202900001Y-106312143D01*
X202900001Y-106483571D01*
X202842858Y-106712143D01*
X202785715Y-106826429D01*
X202671429Y-106940714D01*
X202500001Y-106997857D01*
X202214286Y-106997857D01*
X204042858Y-106997857D02*
X203357143Y-106997857D01*
X203700001Y-106997857D02*
X203700001Y-105797857D01*
X203585715Y-105969286D01*
X203471429Y-106083571D01*
X203357143Y-106140714D01*
X133581667Y-104477381D02*
X133581667Y-105191667D01*
X133534047Y-105334524D01*
X133438809Y-105429762D01*
X133295952Y-105477381D01*
X133200714Y-105477381D01*
X133962619Y-104477381D02*
X134581667Y-104477381D01*
X134248333Y-104858333D01*
X134391191Y-104858333D01*
X134486429Y-104905952D01*
X134534048Y-104953571D01*
X134581667Y-105048810D01*
X134581667Y-105286905D01*
X134534048Y-105382143D01*
X134486429Y-105429762D01*
X134391191Y-105477381D01*
X134105476Y-105477381D01*
X134010238Y-105429762D01*
X133962619Y-105382143D01*
X98087381Y-92408333D02*
X98801667Y-92408333D01*
X98944524Y-92455953D01*
X99039762Y-92551191D01*
X99087381Y-92694048D01*
X99087381Y-92789286D01*
X99087381Y-91884524D02*
X99087381Y-91694048D01*
X99039762Y-91598809D01*
X98992143Y-91551190D01*
X98849286Y-91455952D01*
X98658810Y-91408333D01*
X98277857Y-91408333D01*
X98182619Y-91455952D01*
X98135000Y-91503571D01*
X98087381Y-91598809D01*
X98087381Y-91789286D01*
X98135000Y-91884524D01*
X98182619Y-91932143D01*
X98277857Y-91979762D01*
X98515952Y-91979762D01*
X98611190Y-91932143D01*
X98658810Y-91884524D01*
X98706429Y-91789286D01*
X98706429Y-91598809D01*
X98658810Y-91503571D01*
X98611190Y-91455952D01*
X98515952Y-91408333D01*
X176418334Y-105627381D02*
X176085000Y-105151190D01*
X175846905Y-105627381D02*
X175846905Y-104627381D01*
X176227858Y-104627381D01*
X176323096Y-104675000D01*
X176370715Y-104722619D01*
X176418334Y-104817857D01*
X176418334Y-104960714D01*
X176370715Y-105055952D01*
X176323096Y-105103571D01*
X176227858Y-105151190D01*
X175846905Y-105151190D01*
X177370715Y-105627381D02*
X176799286Y-105627381D01*
X177085000Y-105627381D02*
X177085000Y-104627381D01*
X176989762Y-104770238D01*
X176894524Y-104865476D01*
X176799286Y-104913095D01*
X194257381Y-76636666D02*
X193781190Y-76970000D01*
X194257381Y-77208095D02*
X193257381Y-77208095D01*
X193257381Y-76827142D01*
X193305000Y-76731904D01*
X193352619Y-76684285D01*
X193447857Y-76636666D01*
X193590714Y-76636666D01*
X193685952Y-76684285D01*
X193733571Y-76731904D01*
X193781190Y-76827142D01*
X193781190Y-77208095D01*
X193352619Y-76255714D02*
X193305000Y-76208095D01*
X193257381Y-76112857D01*
X193257381Y-75874761D01*
X193305000Y-75779523D01*
X193352619Y-75731904D01*
X193447857Y-75684285D01*
X193543095Y-75684285D01*
X193685952Y-75731904D01*
X194257381Y-76303333D01*
X194257381Y-75684285D01*
X203957381Y-76636666D02*
X203481190Y-76970000D01*
X203957381Y-77208095D02*
X202957381Y-77208095D01*
X202957381Y-76827142D01*
X203005000Y-76731904D01*
X203052619Y-76684285D01*
X203147857Y-76636666D01*
X203290714Y-76636666D01*
X203385952Y-76684285D01*
X203433571Y-76731904D01*
X203481190Y-76827142D01*
X203481190Y-77208095D01*
X202957381Y-76303333D02*
X202957381Y-75684285D01*
X203338333Y-76017619D01*
X203338333Y-75874761D01*
X203385952Y-75779523D01*
X203433571Y-75731904D01*
X203528810Y-75684285D01*
X203766905Y-75684285D01*
X203862143Y-75731904D01*
X203909762Y-75779523D01*
X203957381Y-75874761D01*
X203957381Y-76160476D01*
X203909762Y-76255714D01*
X203862143Y-76303333D01*
X209497381Y-76636666D02*
X209021190Y-76970000D01*
X209497381Y-77208095D02*
X208497381Y-77208095D01*
X208497381Y-76827142D01*
X208545000Y-76731904D01*
X208592619Y-76684285D01*
X208687857Y-76636666D01*
X208830714Y-76636666D01*
X208925952Y-76684285D01*
X208973571Y-76731904D01*
X209021190Y-76827142D01*
X209021190Y-77208095D01*
X208830714Y-75779523D02*
X209497381Y-75779523D01*
X208449762Y-76017619D02*
X209164048Y-76255714D01*
X209164048Y-75636666D01*
X209037381Y-76636666D02*
X208561190Y-76970000D01*
X209037381Y-77208095D02*
X208037381Y-77208095D01*
X208037381Y-76827142D01*
X208085000Y-76731904D01*
X208132619Y-76684285D01*
X208227857Y-76636666D01*
X208370714Y-76636666D01*
X208465952Y-76684285D01*
X208513571Y-76731904D01*
X208561190Y-76827142D01*
X208561190Y-77208095D01*
X208037381Y-75731904D02*
X208037381Y-76208095D01*
X208513571Y-76255714D01*
X208465952Y-76208095D01*
X208418333Y-76112857D01*
X208418333Y-75874761D01*
X208465952Y-75779523D01*
X208513571Y-75731904D01*
X208608810Y-75684285D01*
X208846905Y-75684285D01*
X208942143Y-75731904D01*
X208989762Y-75779523D01*
X209037381Y-75874761D01*
X209037381Y-76112857D01*
X208989762Y-76208095D01*
X208942143Y-76255714D01*
X100798334Y-106727381D02*
X100465000Y-106251190D01*
X100226905Y-106727381D02*
X100226905Y-105727381D01*
X100607858Y-105727381D01*
X100703096Y-105775000D01*
X100750715Y-105822619D01*
X100798334Y-105917857D01*
X100798334Y-106060714D01*
X100750715Y-106155952D01*
X100703096Y-106203571D01*
X100607858Y-106251190D01*
X100226905Y-106251190D01*
X101655477Y-105727381D02*
X101465000Y-105727381D01*
X101369762Y-105775000D01*
X101322143Y-105822619D01*
X101226905Y-105965476D01*
X101179286Y-106155952D01*
X101179286Y-106536905D01*
X101226905Y-106632143D01*
X101274524Y-106679762D01*
X101369762Y-106727381D01*
X101560239Y-106727381D01*
X101655477Y-106679762D01*
X101703096Y-106632143D01*
X101750715Y-106536905D01*
X101750715Y-106298810D01*
X101703096Y-106203571D01*
X101655477Y-106155952D01*
X101560239Y-106108333D01*
X101369762Y-106108333D01*
X101274524Y-106155952D01*
X101226905Y-106203571D01*
X101179286Y-106298810D01*
X145783334Y-93762381D02*
X145450000Y-93286190D01*
X145211905Y-93762381D02*
X145211905Y-92762381D01*
X145592858Y-92762381D01*
X145688096Y-92810000D01*
X145735715Y-92857619D01*
X145783334Y-92952857D01*
X145783334Y-93095714D01*
X145735715Y-93190952D01*
X145688096Y-93238571D01*
X145592858Y-93286190D01*
X145211905Y-93286190D01*
X146116667Y-92762381D02*
X146783334Y-92762381D01*
X146354762Y-93762381D01*
X145783334Y-88762381D02*
X145450000Y-88286190D01*
X145211905Y-88762381D02*
X145211905Y-87762381D01*
X145592858Y-87762381D01*
X145688096Y-87810000D01*
X145735715Y-87857619D01*
X145783334Y-87952857D01*
X145783334Y-88095714D01*
X145735715Y-88190952D01*
X145688096Y-88238571D01*
X145592858Y-88286190D01*
X145211905Y-88286190D01*
X146354762Y-88190952D02*
X146259524Y-88143333D01*
X146211905Y-88095714D01*
X146164286Y-88000476D01*
X146164286Y-87952857D01*
X146211905Y-87857619D01*
X146259524Y-87810000D01*
X146354762Y-87762381D01*
X146545239Y-87762381D01*
X146640477Y-87810000D01*
X146688096Y-87857619D01*
X146735715Y-87952857D01*
X146735715Y-88000476D01*
X146688096Y-88095714D01*
X146640477Y-88143333D01*
X146545239Y-88190952D01*
X146354762Y-88190952D01*
X146259524Y-88238571D01*
X146211905Y-88286190D01*
X146164286Y-88381429D01*
X146164286Y-88571905D01*
X146211905Y-88667143D01*
X146259524Y-88714762D01*
X146354762Y-88762381D01*
X146545239Y-88762381D01*
X146640477Y-88714762D01*
X146688096Y-88667143D01*
X146735715Y-88571905D01*
X146735715Y-88381429D01*
X146688096Y-88286190D01*
X146640477Y-88238571D01*
X146545239Y-88190952D01*
X166417381Y-84621666D02*
X165941190Y-84955000D01*
X166417381Y-85193095D02*
X165417381Y-85193095D01*
X165417381Y-84812142D01*
X165465000Y-84716904D01*
X165512619Y-84669285D01*
X165607857Y-84621666D01*
X165750714Y-84621666D01*
X165845952Y-84669285D01*
X165893571Y-84716904D01*
X165941190Y-84812142D01*
X165941190Y-85193095D01*
X166417381Y-84145476D02*
X166417381Y-83955000D01*
X166369762Y-83859761D01*
X166322143Y-83812142D01*
X166179286Y-83716904D01*
X165988810Y-83669285D01*
X165607857Y-83669285D01*
X165512619Y-83716904D01*
X165465000Y-83764523D01*
X165417381Y-83859761D01*
X165417381Y-84050238D01*
X165465000Y-84145476D01*
X165512619Y-84193095D01*
X165607857Y-84240714D01*
X165845952Y-84240714D01*
X165941190Y-84193095D01*
X165988810Y-84145476D01*
X166036429Y-84050238D01*
X166036429Y-83859761D01*
X165988810Y-83764523D01*
X165941190Y-83716904D01*
X165845952Y-83669285D01*
X172132381Y-85097857D02*
X171656190Y-85431191D01*
X172132381Y-85669286D02*
X171132381Y-85669286D01*
X171132381Y-85288333D01*
X171180000Y-85193095D01*
X171227619Y-85145476D01*
X171322857Y-85097857D01*
X171465714Y-85097857D01*
X171560952Y-85145476D01*
X171608571Y-85193095D01*
X171656190Y-85288333D01*
X171656190Y-85669286D01*
X172132381Y-84145476D02*
X172132381Y-84716905D01*
X172132381Y-84431191D02*
X171132381Y-84431191D01*
X171275238Y-84526429D01*
X171370476Y-84621667D01*
X171418095Y-84716905D01*
X171132381Y-83526429D02*
X171132381Y-83431190D01*
X171180000Y-83335952D01*
X171227619Y-83288333D01*
X171322857Y-83240714D01*
X171513333Y-83193095D01*
X171751429Y-83193095D01*
X171941905Y-83240714D01*
X172037143Y-83288333D01*
X172084762Y-83335952D01*
X172132381Y-83431190D01*
X172132381Y-83526429D01*
X172084762Y-83621667D01*
X172037143Y-83669286D01*
X171941905Y-83716905D01*
X171751429Y-83764524D01*
X171513333Y-83764524D01*
X171322857Y-83716905D01*
X171227619Y-83669286D01*
X171180000Y-83621667D01*
X171132381Y-83526429D01*
X171037381Y-97797857D02*
X170561190Y-98131191D01*
X171037381Y-98369286D02*
X170037381Y-98369286D01*
X170037381Y-97988333D01*
X170085000Y-97893095D01*
X170132619Y-97845476D01*
X170227857Y-97797857D01*
X170370714Y-97797857D01*
X170465952Y-97845476D01*
X170513571Y-97893095D01*
X170561190Y-97988333D01*
X170561190Y-98369286D01*
X171037381Y-96845476D02*
X171037381Y-97416905D01*
X171037381Y-97131191D02*
X170037381Y-97131191D01*
X170180238Y-97226429D01*
X170275476Y-97321667D01*
X170323095Y-97416905D01*
X171037381Y-95893095D02*
X171037381Y-96464524D01*
X171037381Y-96178810D02*
X170037381Y-96178810D01*
X170180238Y-96274048D01*
X170275476Y-96369286D01*
X170323095Y-96464524D01*
X176752381Y-97797857D02*
X176276190Y-98131191D01*
X176752381Y-98369286D02*
X175752381Y-98369286D01*
X175752381Y-97988333D01*
X175800000Y-97893095D01*
X175847619Y-97845476D01*
X175942857Y-97797857D01*
X176085714Y-97797857D01*
X176180952Y-97845476D01*
X176228571Y-97893095D01*
X176276190Y-97988333D01*
X176276190Y-98369286D01*
X176752381Y-96845476D02*
X176752381Y-97416905D01*
X176752381Y-97131191D02*
X175752381Y-97131191D01*
X175895238Y-97226429D01*
X175990476Y-97321667D01*
X176038095Y-97416905D01*
X175847619Y-96464524D02*
X175800000Y-96416905D01*
X175752381Y-96321667D01*
X175752381Y-96083571D01*
X175800000Y-95988333D01*
X175847619Y-95940714D01*
X175942857Y-95893095D01*
X176038095Y-95893095D01*
X176180952Y-95940714D01*
X176752381Y-96512143D01*
X176752381Y-95893095D01*
X176282143Y-118747381D02*
X175948809Y-118271190D01*
X175710714Y-118747381D02*
X175710714Y-117747381D01*
X176091667Y-117747381D01*
X176186905Y-117795000D01*
X176234524Y-117842619D01*
X176282143Y-117937857D01*
X176282143Y-118080714D01*
X176234524Y-118175952D01*
X176186905Y-118223571D01*
X176091667Y-118271190D01*
X175710714Y-118271190D01*
X177234524Y-118747381D02*
X176663095Y-118747381D01*
X176948809Y-118747381D02*
X176948809Y-117747381D01*
X176853571Y-117890238D01*
X176758333Y-117985476D01*
X176663095Y-118033095D01*
X177567857Y-117747381D02*
X178186905Y-117747381D01*
X177853571Y-118128333D01*
X177996429Y-118128333D01*
X178091667Y-118175952D01*
X178139286Y-118223571D01*
X178186905Y-118318810D01*
X178186905Y-118556905D01*
X178139286Y-118652143D01*
X178091667Y-118699762D01*
X177996429Y-118747381D01*
X177710714Y-118747381D01*
X177615476Y-118699762D01*
X177567857Y-118652143D01*
X114139381Y-126746905D02*
X114948905Y-126746905D01*
X115044143Y-126699286D01*
X115091762Y-126651667D01*
X115139381Y-126556429D01*
X115139381Y-126365952D01*
X115091762Y-126270714D01*
X115044143Y-126223095D01*
X114948905Y-126175476D01*
X114139381Y-126175476D01*
X115139381Y-125175476D02*
X115139381Y-125746905D01*
X115139381Y-125461191D02*
X114139381Y-125461191D01*
X114282238Y-125556429D01*
X114377476Y-125651667D01*
X114425095Y-125746905D01*
X209685095Y-113977381D02*
X209685095Y-114786905D01*
X209732714Y-114882143D01*
X209780333Y-114929762D01*
X209875571Y-114977381D01*
X210066048Y-114977381D01*
X210161286Y-114929762D01*
X210208905Y-114882143D01*
X210256524Y-114786905D01*
X210256524Y-113977381D01*
X210637476Y-113977381D02*
X211256524Y-113977381D01*
X210923190Y-114358333D01*
X211066048Y-114358333D01*
X211161286Y-114405952D01*
X211208905Y-114453571D01*
X211256524Y-114548810D01*
X211256524Y-114786905D01*
X211208905Y-114882143D01*
X211161286Y-114929762D01*
X211066048Y-114977381D01*
X210780333Y-114977381D01*
X210685095Y-114929762D01*
X210637476Y-114882143D01*
X184127381Y-59556905D02*
X184936905Y-59556905D01*
X185032143Y-59509286D01*
X185079762Y-59461667D01*
X185127381Y-59366429D01*
X185127381Y-59175952D01*
X185079762Y-59080714D01*
X185032143Y-59033095D01*
X184936905Y-58985476D01*
X184127381Y-58985476D01*
X184460714Y-58080714D02*
X185127381Y-58080714D01*
X184079762Y-58318810D02*
X184794048Y-58556905D01*
X184794048Y-57937857D01*
X198448334Y-86122143D02*
X198400715Y-86169762D01*
X198257858Y-86217381D01*
X198162620Y-86217381D01*
X198019762Y-86169762D01*
X197924524Y-86074524D01*
X197876905Y-85979286D01*
X197829286Y-85788810D01*
X197829286Y-85645952D01*
X197876905Y-85455476D01*
X197924524Y-85360238D01*
X198019762Y-85265000D01*
X198162620Y-85217381D01*
X198257858Y-85217381D01*
X198400715Y-85265000D01*
X198448334Y-85312619D01*
X199305477Y-85550714D02*
X199305477Y-86217381D01*
X199067381Y-85169762D02*
X198829286Y-85884048D01*
X199448334Y-85884048D01*
X176282143Y-123747381D02*
X175948809Y-123271190D01*
X175710714Y-123747381D02*
X175710714Y-122747381D01*
X176091667Y-122747381D01*
X176186905Y-122795000D01*
X176234524Y-122842619D01*
X176282143Y-122937857D01*
X176282143Y-123080714D01*
X176234524Y-123175952D01*
X176186905Y-123223571D01*
X176091667Y-123271190D01*
X175710714Y-123271190D01*
X177234524Y-123747381D02*
X176663095Y-123747381D01*
X176948809Y-123747381D02*
X176948809Y-122747381D01*
X176853571Y-122890238D01*
X176758333Y-122985476D01*
X176663095Y-123033095D01*
X178091667Y-123080714D02*
X178091667Y-123747381D01*
X177853571Y-122699762D02*
X177615476Y-123414048D01*
X178234524Y-123414048D01*
X202685095Y-123227381D02*
X202685095Y-124036905D01*
X202732714Y-124132143D01*
X202780333Y-124179762D01*
X202875571Y-124227381D01*
X203066048Y-124227381D01*
X203161286Y-124179762D01*
X203208905Y-124132143D01*
X203256524Y-124036905D01*
X203256524Y-123227381D01*
X204208905Y-123227381D02*
X203732714Y-123227381D01*
X203685095Y-123703571D01*
X203732714Y-123655952D01*
X203827952Y-123608333D01*
X204066048Y-123608333D01*
X204161286Y-123655952D01*
X204208905Y-123703571D01*
X204256524Y-123798810D01*
X204256524Y-124036905D01*
X204208905Y-124132143D01*
X204161286Y-124179762D01*
X204066048Y-124227381D01*
X203827952Y-124227381D01*
X203732714Y-124179762D01*
X203685095Y-124132143D01*
X115007381Y-138818333D02*
X115721667Y-138818333D01*
X115864524Y-138865953D01*
X115959762Y-138961191D01*
X116007381Y-139104048D01*
X116007381Y-139199286D01*
X116007381Y-137818333D02*
X116007381Y-138389762D01*
X116007381Y-138104048D02*
X115007381Y-138104048D01*
X115150238Y-138199286D01*
X115245476Y-138294524D01*
X115293095Y-138389762D01*
X158416667Y-81577381D02*
X158416667Y-82291667D01*
X158369047Y-82434524D01*
X158273809Y-82529762D01*
X158130952Y-82577381D01*
X158035714Y-82577381D01*
X159369048Y-81577381D02*
X158892857Y-81577381D01*
X158845238Y-82053571D01*
X158892857Y-82005952D01*
X158988095Y-81958333D01*
X159226191Y-81958333D01*
X159321429Y-82005952D01*
X159369048Y-82053571D01*
X159416667Y-82148810D01*
X159416667Y-82386905D01*
X159369048Y-82482143D01*
X159321429Y-82529762D01*
X159226191Y-82577381D01*
X158988095Y-82577381D01*
X158892857Y-82529762D01*
X158845238Y-82482143D01*
X95671667Y-110107381D02*
X95671667Y-110821667D01*
X95624047Y-110964524D01*
X95528809Y-111059762D01*
X95385952Y-111107381D01*
X95290714Y-111107381D01*
X96290714Y-110535952D02*
X96195476Y-110488333D01*
X96147857Y-110440714D01*
X96100238Y-110345476D01*
X96100238Y-110297857D01*
X96147857Y-110202619D01*
X96195476Y-110155000D01*
X96290714Y-110107381D01*
X96481191Y-110107381D01*
X96576429Y-110155000D01*
X96624048Y-110202619D01*
X96671667Y-110297857D01*
X96671667Y-110345476D01*
X96624048Y-110440714D01*
X96576429Y-110488333D01*
X96481191Y-110535952D01*
X96290714Y-110535952D01*
X96195476Y-110583571D01*
X96147857Y-110631190D01*
X96100238Y-110726429D01*
X96100238Y-110916905D01*
X96147857Y-111012143D01*
X96195476Y-111059762D01*
X96290714Y-111107381D01*
X96481191Y-111107381D01*
X96576429Y-111059762D01*
X96624048Y-111012143D01*
X96671667Y-110916905D01*
X96671667Y-110726429D01*
X96624048Y-110631190D01*
X96576429Y-110583571D01*
X96481191Y-110535952D01*
X102195477Y-62607381D02*
X102195477Y-63321667D01*
X102147857Y-63464524D01*
X102052619Y-63559762D01*
X101909762Y-63607381D01*
X101814524Y-63607381D01*
X103195477Y-63607381D02*
X102624048Y-63607381D01*
X102909762Y-63607381D02*
X102909762Y-62607381D01*
X102814524Y-62750238D01*
X102719286Y-62845476D01*
X102624048Y-62893095D01*
X104147858Y-63607381D02*
X103576429Y-63607381D01*
X103862143Y-63607381D02*
X103862143Y-62607381D01*
X103766905Y-62750238D01*
X103671667Y-62845476D01*
X103576429Y-62893095D01*
X109695477Y-62607381D02*
X109695477Y-63321667D01*
X109647857Y-63464524D01*
X109552619Y-63559762D01*
X109409762Y-63607381D01*
X109314524Y-63607381D01*
X110695477Y-63607381D02*
X110124048Y-63607381D01*
X110409762Y-63607381D02*
X110409762Y-62607381D01*
X110314524Y-62750238D01*
X110219286Y-62845476D01*
X110124048Y-62893095D01*
X111076429Y-62702619D02*
X111124048Y-62655000D01*
X111219286Y-62607381D01*
X111457382Y-62607381D01*
X111552620Y-62655000D01*
X111600239Y-62702619D01*
X111647858Y-62797857D01*
X111647858Y-62893095D01*
X111600239Y-63035952D01*
X111028810Y-63607381D01*
X111647858Y-63607381D01*
X132195477Y-84107381D02*
X132195477Y-84821667D01*
X132147857Y-84964524D01*
X132052619Y-85059762D01*
X131909762Y-85107381D01*
X131814524Y-85107381D01*
X133195477Y-85107381D02*
X132624048Y-85107381D01*
X132909762Y-85107381D02*
X132909762Y-84107381D01*
X132814524Y-84250238D01*
X132719286Y-84345476D01*
X132624048Y-84393095D01*
X134052620Y-84440714D02*
X134052620Y-85107381D01*
X133814524Y-84059762D02*
X133576429Y-84774048D01*
X134195477Y-84774048D01*
X99695477Y-84107381D02*
X99695477Y-84821667D01*
X99647857Y-84964524D01*
X99552619Y-85059762D01*
X99409762Y-85107381D01*
X99314524Y-85107381D01*
X100695477Y-85107381D02*
X100124048Y-85107381D01*
X100409762Y-85107381D02*
X100409762Y-84107381D01*
X100314524Y-84250238D01*
X100219286Y-84345476D01*
X100124048Y-84393095D01*
X101600239Y-84107381D02*
X101124048Y-84107381D01*
X101076429Y-84583571D01*
X101124048Y-84535952D01*
X101219286Y-84488333D01*
X101457382Y-84488333D01*
X101552620Y-84535952D01*
X101600239Y-84583571D01*
X101647858Y-84678810D01*
X101647858Y-84916905D01*
X101600239Y-85012143D01*
X101552620Y-85059762D01*
X101457382Y-85107381D01*
X101219286Y-85107381D01*
X101124048Y-85059762D01*
X101076429Y-85012143D01*
X110195477Y-110107381D02*
X110195477Y-110821667D01*
X110147857Y-110964524D01*
X110052619Y-111059762D01*
X109909762Y-111107381D01*
X109814524Y-111107381D01*
X111195477Y-111107381D02*
X110624048Y-111107381D01*
X110909762Y-111107381D02*
X110909762Y-110107381D01*
X110814524Y-110250238D01*
X110719286Y-110345476D01*
X110624048Y-110393095D01*
X112052620Y-110107381D02*
X111862143Y-110107381D01*
X111766905Y-110155000D01*
X111719286Y-110202619D01*
X111624048Y-110345476D01*
X111576429Y-110535952D01*
X111576429Y-110916905D01*
X111624048Y-111012143D01*
X111671667Y-111059762D01*
X111766905Y-111107381D01*
X111957382Y-111107381D01*
X112052620Y-111059762D01*
X112100239Y-111012143D01*
X112147858Y-110916905D01*
X112147858Y-110678810D01*
X112100239Y-110583571D01*
X112052620Y-110535952D01*
X111957382Y-110488333D01*
X111766905Y-110488333D01*
X111671667Y-110535952D01*
X111624048Y-110583571D01*
X111576429Y-110678810D01*
X132357857Y-138885000D02*
X133215000Y-138885000D01*
X133386429Y-138942142D01*
X133500714Y-139056428D01*
X133557857Y-139227857D01*
X133557857Y-139342142D01*
X132357857Y-137799285D02*
X132357857Y-138027856D01*
X132415000Y-138142142D01*
X132472143Y-138199285D01*
X132643571Y-138313571D01*
X132872143Y-138370714D01*
X133329286Y-138370714D01*
X133443571Y-138313571D01*
X133500714Y-138256428D01*
X133557857Y-138142142D01*
X133557857Y-137913571D01*
X133500714Y-137799285D01*
X133443571Y-137742142D01*
X133329286Y-137684999D01*
X133043571Y-137684999D01*
X132929286Y-137742142D01*
X132872143Y-137799285D01*
X132815000Y-137913571D01*
X132815000Y-138142142D01*
X132872143Y-138256428D01*
X132929286Y-138313571D01*
X133043571Y-138370714D01*
X94945477Y-99357381D02*
X94945477Y-100071667D01*
X94897857Y-100214524D01*
X94802619Y-100309762D01*
X94659762Y-100357381D01*
X94564524Y-100357381D01*
X95945477Y-100357381D02*
X95374048Y-100357381D01*
X95659762Y-100357381D02*
X95659762Y-99357381D01*
X95564524Y-99500238D01*
X95469286Y-99595476D01*
X95374048Y-99643095D01*
X96516905Y-99785952D02*
X96421667Y-99738333D01*
X96374048Y-99690714D01*
X96326429Y-99595476D01*
X96326429Y-99547857D01*
X96374048Y-99452619D01*
X96421667Y-99405000D01*
X96516905Y-99357381D01*
X96707382Y-99357381D01*
X96802620Y-99405000D01*
X96850239Y-99452619D01*
X96897858Y-99547857D01*
X96897858Y-99595476D01*
X96850239Y-99690714D01*
X96802620Y-99738333D01*
X96707382Y-99785952D01*
X96516905Y-99785952D01*
X96421667Y-99833571D01*
X96374048Y-99881190D01*
X96326429Y-99976429D01*
X96326429Y-100166905D01*
X96374048Y-100262143D01*
X96421667Y-100309762D01*
X96516905Y-100357381D01*
X96707382Y-100357381D01*
X96802620Y-100309762D01*
X96850239Y-100262143D01*
X96897858Y-100166905D01*
X96897858Y-99976429D01*
X96850239Y-99881190D01*
X96802620Y-99833571D01*
X96707382Y-99785952D01*
X94945477Y-86357381D02*
X94945477Y-87071667D01*
X94897857Y-87214524D01*
X94802619Y-87309762D01*
X94659762Y-87357381D01*
X94564524Y-87357381D01*
X95945477Y-87357381D02*
X95374048Y-87357381D01*
X95659762Y-87357381D02*
X95659762Y-86357381D01*
X95564524Y-86500238D01*
X95469286Y-86595476D01*
X95374048Y-86643095D01*
X96421667Y-87357381D02*
X96612143Y-87357381D01*
X96707382Y-87309762D01*
X96755001Y-87262143D01*
X96850239Y-87119286D01*
X96897858Y-86928810D01*
X96897858Y-86547857D01*
X96850239Y-86452619D01*
X96802620Y-86405000D01*
X96707382Y-86357381D01*
X96516905Y-86357381D01*
X96421667Y-86405000D01*
X96374048Y-86452619D01*
X96326429Y-86547857D01*
X96326429Y-86785952D01*
X96374048Y-86881190D01*
X96421667Y-86928810D01*
X96516905Y-86976429D01*
X96707382Y-86976429D01*
X96802620Y-86928810D01*
X96850239Y-86881190D01*
X96897858Y-86785952D01*
M02*
