G04 #@! TF.FileFunction,Copper,L4,Bot,Signal*
%FSLAX46Y46*%
G04 Gerber Fmt 4.6, Leading zero omitted, Abs format (unit mm)*
G04 Created by KiCad (PCBNEW 4.0.7) date 05/28/18 16:01:47*
%MOMM*%
%LPD*%
G01*
G04 APERTURE LIST*
%ADD10C,0.100000*%
%ADD11R,1.600000X1.600000*%
%ADD12O,1.600000X1.600000*%
%ADD13C,2.400000*%
%ADD14R,2.400000X2.400000*%
%ADD15R,1.700000X1.700000*%
%ADD16O,1.700000X1.700000*%
%ADD17C,1.600000*%
%ADD18C,3.500000*%
%ADD19O,2.540000X2.032000*%
%ADD20R,2.000000X3.000000*%
%ADD21O,2.000000X3.000000*%
%ADD22C,2.500000*%
%ADD23C,3.000000*%
%ADD24C,0.600000*%
%ADD25C,0.500000*%
%ADD26C,1.000000*%
%ADD27C,0.250000*%
%ADD28C,2.000000*%
%ADD29C,0.750000*%
G04 APERTURE END LIST*
D10*
D11*
X157000000Y-107500000D03*
D12*
X164620000Y-125280000D03*
X157000000Y-110040000D03*
X164620000Y-122740000D03*
X157000000Y-112580000D03*
X164620000Y-120200000D03*
X157000000Y-115120000D03*
X164620000Y-117660000D03*
X157000000Y-117660000D03*
X164620000Y-115120000D03*
X157000000Y-120200000D03*
X164620000Y-112580000D03*
X157000000Y-122740000D03*
X164620000Y-110040000D03*
X157000000Y-125280000D03*
X164620000Y-107500000D03*
D13*
X190005000Y-133235000D03*
X190005000Y-129735000D03*
X190005000Y-136735000D03*
D14*
X190005000Y-140235000D03*
D15*
X100375000Y-55255000D03*
D16*
X100375000Y-52715000D03*
X102915000Y-55255000D03*
X102915000Y-52715000D03*
X105455000Y-55255000D03*
X105455000Y-52715000D03*
X107995000Y-52715000D03*
X110535000Y-55255000D03*
X110535000Y-52715000D03*
X113075000Y-52715000D03*
X115615000Y-52715000D03*
X118155000Y-52715000D03*
X120695000Y-52715000D03*
X123235000Y-55255000D03*
X125775000Y-55255000D03*
X125775000Y-52715000D03*
X128315000Y-55255000D03*
X128315000Y-52715000D03*
X130855000Y-52715000D03*
X133395000Y-55255000D03*
X133395000Y-52715000D03*
X135935000Y-55255000D03*
X135935000Y-52715000D03*
X138475000Y-55255000D03*
X138475000Y-52715000D03*
X141015000Y-55255000D03*
X141015000Y-52715000D03*
X143555000Y-55255000D03*
X143555000Y-52715000D03*
X146095000Y-55255000D03*
X146095000Y-52715000D03*
X148635000Y-55255000D03*
X148635000Y-52715000D03*
D11*
X101260000Y-125910000D03*
D17*
X101260000Y-130910000D03*
D11*
X111420000Y-125910000D03*
D17*
X111420000Y-130910000D03*
D11*
X126005000Y-125985000D03*
D17*
X126005000Y-130985000D03*
D18*
X195600000Y-102505000D03*
X200600000Y-102505000D03*
X205600000Y-102505000D03*
X210600000Y-102505000D03*
D15*
X132645000Y-107355000D03*
D16*
X135185000Y-107355000D03*
X132645000Y-109895000D03*
X135185000Y-109895000D03*
X132645000Y-112435000D03*
X135185000Y-112435000D03*
X132645000Y-114975000D03*
X135185000Y-114975000D03*
X132645000Y-117515000D03*
X135185000Y-117515000D03*
X132645000Y-120055000D03*
X135185000Y-120055000D03*
X132645000Y-122595000D03*
X135185000Y-122595000D03*
X132645000Y-125135000D03*
X135185000Y-125135000D03*
D15*
X100965000Y-102235000D03*
D16*
X103505000Y-102235000D03*
X106045000Y-102235000D03*
X108585000Y-102235000D03*
X111125000Y-102235000D03*
X113665000Y-102235000D03*
X116205000Y-102235000D03*
X118745000Y-102235000D03*
X121285000Y-102235000D03*
X123825000Y-102235000D03*
X126365000Y-102235000D03*
X128905000Y-102235000D03*
X131445000Y-102235000D03*
X133985000Y-102235000D03*
X136525000Y-102235000D03*
X139065000Y-102235000D03*
D15*
X100965000Y-92075000D03*
D16*
X103505000Y-92075000D03*
X106045000Y-92075000D03*
X108585000Y-92075000D03*
X111125000Y-92075000D03*
D17*
X171505000Y-107485000D03*
D12*
X181665000Y-107485000D03*
D17*
X196115000Y-81550000D03*
D12*
X196115000Y-71390000D03*
D17*
X201195000Y-71390000D03*
D12*
X201195000Y-81550000D03*
D17*
X211355000Y-81550000D03*
D12*
X211355000Y-71390000D03*
D17*
X206275000Y-71390000D03*
D12*
X206275000Y-81550000D03*
D17*
X95885000Y-108585000D03*
D12*
X106045000Y-108585000D03*
D17*
X151030000Y-91000000D03*
D12*
X140870000Y-91000000D03*
D17*
X151030000Y-86000000D03*
D12*
X140870000Y-86000000D03*
D17*
X168275000Y-89535000D03*
D12*
X168275000Y-79375000D03*
D17*
X173990000Y-89535000D03*
D12*
X173990000Y-79375000D03*
D17*
X168275000Y-92075000D03*
D12*
X168275000Y-102235000D03*
D17*
X173990000Y-92075000D03*
D12*
X173990000Y-102235000D03*
D17*
X182005000Y-115985000D03*
D12*
X171845000Y-115985000D03*
D19*
X119005000Y-125985000D03*
X119005000Y-123445000D03*
X119005000Y-128525000D03*
D20*
X210955000Y-111985000D03*
D21*
X205875000Y-111985000D03*
X198255000Y-111985000D03*
X195715000Y-111985000D03*
D11*
X187005000Y-62605000D03*
D12*
X192085000Y-54985000D03*
X189545000Y-62605000D03*
X189545000Y-54985000D03*
X192085000Y-62605000D03*
X187005000Y-54985000D03*
D11*
X196115000Y-91075000D03*
D17*
X201115000Y-91075000D03*
X182005000Y-120985000D03*
D12*
X171845000Y-120985000D03*
D20*
X203955000Y-121235000D03*
D21*
X198875000Y-121235000D03*
X191255000Y-121235000D03*
X188715000Y-121235000D03*
D13*
X111255000Y-140235000D03*
D14*
X111255000Y-136735000D03*
D15*
X157480000Y-84455000D03*
D16*
X160020000Y-84455000D03*
X157480000Y-86995000D03*
X160020000Y-86995000D03*
X157480000Y-89535000D03*
X160020000Y-89535000D03*
X157480000Y-92075000D03*
X160020000Y-92075000D03*
D22*
X96005000Y-112985000D03*
X103005000Y-65485000D03*
X110505000Y-65485000D03*
X133005000Y-86985000D03*
X100505000Y-86985000D03*
X111005000Y-112985000D03*
D23*
X138755000Y-135985000D03*
X136215000Y-140985000D03*
X143755000Y-135985000D03*
X141215000Y-140985000D03*
X148755000Y-135985000D03*
X146215000Y-140985000D03*
X153755000Y-135985000D03*
X151215000Y-140985000D03*
X158755000Y-135985000D03*
X156215000Y-140985000D03*
X163755000Y-135985000D03*
X161215000Y-140985000D03*
X168755000Y-135985000D03*
X166215000Y-140985000D03*
X173755000Y-135985000D03*
X171215000Y-140985000D03*
D22*
X95755000Y-102235000D03*
X95755000Y-89235000D03*
D24*
X111005000Y-112985000D03*
X96005000Y-112985000D03*
X103005000Y-65485000D03*
X110505000Y-65485000D03*
X135185000Y-107355000D03*
X157000000Y-107500000D03*
X164620000Y-107500000D03*
X132715000Y-86995000D03*
X100330000Y-86995000D03*
D25*
X139065000Y-102235000D02*
X157755000Y-102235000D01*
X159005000Y-103485000D02*
X159005000Y-119665000D01*
X157755000Y-102235000D02*
X159005000Y-103485000D01*
X159005000Y-119665000D02*
X164620000Y-125280000D01*
X177505000Y-98985000D02*
X177505000Y-82735000D01*
X177505000Y-82735000D02*
X177505000Y-62985000D01*
X160020000Y-84455000D02*
X175785000Y-84455000D01*
X175785000Y-84455000D02*
X177505000Y-82735000D01*
X176005000Y-61485000D02*
X174625000Y-62865000D01*
X174625000Y-62865000D02*
X156245000Y-62865000D01*
X156245000Y-62865000D02*
X155365000Y-61985000D01*
X155365000Y-61985000D02*
X148635000Y-55255000D01*
X95885000Y-105105000D02*
X95755000Y-104975000D01*
X95755000Y-104975000D02*
X95755000Y-102235000D01*
X100965000Y-92075000D02*
X100965000Y-89525000D01*
X100965000Y-89525000D02*
X103005000Y-87485000D01*
X103005000Y-87485000D02*
X103005000Y-65485000D01*
X95755000Y-89235000D02*
X99475000Y-89235000D01*
X99475000Y-89235000D02*
X100965000Y-90725000D01*
X100965000Y-90725000D02*
X100965000Y-92075000D01*
X177755000Y-138735000D02*
X175505000Y-140985000D01*
X171215000Y-140985000D02*
X175505000Y-140985000D01*
X177755000Y-133485000D02*
X177755000Y-138735000D01*
X174755000Y-130485000D02*
X177755000Y-133485000D01*
X170956370Y-130485000D02*
X174755000Y-130485000D01*
X164620000Y-125280000D02*
X165751370Y-125280000D01*
X165751370Y-125280000D02*
X170956370Y-130485000D01*
X111255000Y-140235000D02*
X135465000Y-140235000D01*
X135465000Y-140235000D02*
X136215000Y-140985000D01*
X119005000Y-128525000D02*
X119005000Y-140235000D01*
X171215000Y-140985000D02*
X136215000Y-140985000D01*
X94505000Y-138985000D02*
X94505000Y-114485000D01*
X111255000Y-140235000D02*
X108755000Y-142735000D01*
X108755000Y-142735000D02*
X98255000Y-142735000D01*
X98255000Y-142735000D02*
X94505000Y-138985000D01*
X178505000Y-111235000D02*
X178505000Y-109985000D01*
X178755000Y-111235000D02*
X180005000Y-109985000D01*
X178505000Y-122235000D02*
X178505000Y-111235000D01*
X178505000Y-109985000D02*
X180005000Y-109985000D01*
X180005000Y-109985000D02*
X194215000Y-109985000D01*
X178505000Y-111235000D02*
X178755000Y-111235000D01*
X194215000Y-109985000D02*
X195715000Y-111485000D01*
X195715000Y-111485000D02*
X195715000Y-111985000D01*
X175005000Y-109985000D02*
X178505000Y-109985000D01*
X180255000Y-123985000D02*
X178505000Y-122235000D01*
X186465000Y-123985000D02*
X180255000Y-123985000D01*
X188715000Y-121235000D02*
X188715000Y-121735000D01*
X188715000Y-121735000D02*
X186465000Y-123985000D01*
X179005000Y-52985000D02*
X190085000Y-52985000D01*
X190085000Y-52985000D02*
X192085000Y-54985000D01*
X177505000Y-54485000D02*
X179005000Y-52985000D01*
X177505000Y-59985000D02*
X177505000Y-54485000D01*
X176005000Y-61485000D02*
X177505000Y-59985000D01*
X173990000Y-102235000D02*
X173990000Y-108970000D01*
X173990000Y-108970000D02*
X175005000Y-109985000D01*
X177505000Y-62985000D02*
X176005000Y-61485000D01*
X111420000Y-130910000D02*
X101260000Y-130910000D01*
X119005000Y-128525000D02*
X113805000Y-128525000D01*
X113805000Y-128525000D02*
X111420000Y-130910000D01*
X126005000Y-130985000D02*
X119949000Y-130985000D01*
X119949000Y-130985000D02*
X119005000Y-130041000D01*
X119005000Y-130041000D02*
X119005000Y-128525000D01*
X173990000Y-102235000D02*
X174255000Y-102235000D01*
X174255000Y-102235000D02*
X177505000Y-98985000D01*
X94505000Y-114485000D02*
X96005000Y-112985000D01*
X101260000Y-130910000D02*
X101185000Y-130985000D01*
X111125000Y-102235000D02*
X111125000Y-110985000D01*
X111125000Y-112865000D02*
X111005000Y-112985000D01*
X111125000Y-110985000D02*
X111125000Y-112865000D01*
X95885000Y-112865000D02*
X95885000Y-108585000D01*
X96005000Y-112985000D02*
X95885000Y-112865000D01*
X110535000Y-55255000D02*
X110535000Y-65455000D01*
X110535000Y-65455000D02*
X110505000Y-65485000D01*
X95885000Y-108585000D02*
X95885000Y-105105000D01*
X95885000Y-105105000D02*
X98755000Y-102235000D01*
X98755000Y-102235000D02*
X100965000Y-102235000D01*
D26*
X160020000Y-86995000D02*
X160020000Y-84455000D01*
X173990000Y-102235000D02*
X168275000Y-102235000D01*
X201195000Y-81550000D02*
X196115000Y-86630000D01*
X196115000Y-86630000D02*
X196115000Y-91075000D01*
X196115000Y-91075000D02*
X196115000Y-100600000D01*
X196115000Y-100600000D02*
X195600000Y-101115000D01*
X195600000Y-101115000D02*
X195600000Y-102505000D01*
D27*
X196115000Y-91075000D02*
X196115000Y-86630000D01*
X195600000Y-102505000D02*
X195600000Y-91590000D01*
X195600000Y-91590000D02*
X196115000Y-91075000D01*
D26*
X200600000Y-102505000D02*
X200600000Y-91590000D01*
X200600000Y-91590000D02*
X201115000Y-91075000D01*
X201115000Y-91075000D02*
X206275000Y-85915000D01*
X206275000Y-85915000D02*
X206275000Y-81550000D01*
D27*
X200600000Y-91590000D02*
X206275000Y-85915000D01*
X206275000Y-85915000D02*
X206275000Y-81550000D01*
D25*
X198875000Y-121235000D02*
X198875000Y-118365000D01*
X205600000Y-104890000D02*
X205600000Y-102505000D01*
X202755000Y-107735000D02*
X205600000Y-104890000D01*
X202755000Y-114485000D02*
X202755000Y-107735000D01*
X198875000Y-118365000D02*
X202755000Y-114485000D01*
D28*
X198875000Y-121235000D02*
X198875000Y-120735000D01*
D29*
X205600000Y-102505000D02*
X205640000Y-102505000D01*
D28*
X190005000Y-129735000D02*
X195111101Y-124628899D01*
X195111101Y-124628899D02*
X197195987Y-124628899D01*
X197195987Y-124628899D02*
X198875000Y-122949886D01*
X198875000Y-122949886D02*
X198875000Y-121235000D01*
D25*
X205875000Y-111985000D02*
X205875000Y-110865000D01*
X205875000Y-110865000D02*
X210600000Y-106140000D01*
X210600000Y-106140000D02*
X210600000Y-102505000D01*
D28*
X205875000Y-111985000D02*
X205875000Y-111485000D01*
X207755000Y-125735000D02*
X207755000Y-117365000D01*
X207755000Y-117365000D02*
X205875000Y-115485000D01*
X205875000Y-115485000D02*
X205875000Y-111985000D01*
X203255000Y-130235000D02*
X207755000Y-125735000D01*
X203255000Y-135735000D02*
X203255000Y-130235000D01*
X200505000Y-138485000D02*
X203255000Y-135735000D01*
X197755000Y-138485000D02*
X200505000Y-138485000D01*
X196005000Y-136735000D02*
X197755000Y-138485000D01*
X190005000Y-136735000D02*
X196005000Y-136735000D01*
D25*
X155505000Y-127735000D02*
X151255000Y-123485000D01*
X135185000Y-107355000D02*
X151255000Y-123425000D01*
X151255000Y-123425000D02*
X151255000Y-123485000D01*
X165505000Y-127735000D02*
X155505000Y-127735000D01*
X173755000Y-135985000D02*
X165505000Y-127735000D01*
X156855000Y-107355000D02*
X157000000Y-107500000D01*
X162255000Y-129485000D02*
X154755000Y-129485000D01*
X135185000Y-109895000D02*
X154755000Y-129465000D01*
X154755000Y-129465000D02*
X154755000Y-129485000D01*
X168755000Y-135985000D02*
X162255000Y-129485000D01*
X135185000Y-112435000D02*
X153985000Y-131235000D01*
X153985000Y-131235000D02*
X159005000Y-131235000D01*
X159005000Y-131235000D02*
X163755000Y-135985000D01*
X135185000Y-114975000D02*
X136034999Y-115824999D01*
X136034999Y-115824999D02*
X136094999Y-115824999D01*
X136094999Y-115824999D02*
X153255000Y-132985000D01*
X153255000Y-132985000D02*
X155755000Y-132985000D01*
X155755000Y-132985000D02*
X158755000Y-135985000D01*
X153755000Y-135985000D02*
X143505000Y-125735000D01*
X135185000Y-117515000D02*
X136034999Y-118364999D01*
X136034999Y-118364999D02*
X136134999Y-118364999D01*
X136134999Y-118364999D02*
X143505000Y-125735000D01*
X148755000Y-133485000D02*
X141505000Y-126235000D01*
X135185000Y-120055000D02*
X141365000Y-126235000D01*
X141365000Y-126235000D02*
X141505000Y-126235000D01*
X148755000Y-135985000D02*
X148755000Y-133485000D01*
X143755000Y-135985000D02*
X143755000Y-131165000D01*
X143755000Y-131165000D02*
X135185000Y-122595000D01*
X138755000Y-135985000D02*
X138755000Y-128705000D01*
X138755000Y-128705000D02*
X135185000Y-125135000D01*
X106045000Y-108585000D02*
X106045000Y-102235000D01*
D26*
X151030000Y-86000000D02*
X153945000Y-86000000D01*
X154940000Y-86995000D02*
X157480000Y-86995000D01*
X153945000Y-86000000D02*
X154940000Y-86995000D01*
D25*
X195005000Y-50985000D02*
X147825000Y-50985000D01*
X197005000Y-52985000D02*
X195005000Y-50985000D01*
X197005000Y-55985000D02*
X197005000Y-52985000D01*
X195005000Y-57985000D02*
X197005000Y-55985000D01*
X192545000Y-57985000D02*
X195005000Y-57985000D01*
X189545000Y-54985000D02*
X192545000Y-57985000D01*
X188005000Y-56525000D02*
X189545000Y-54985000D01*
X185005000Y-57985000D02*
X186545000Y-57985000D01*
X186545000Y-57985000D02*
X188005000Y-56525000D01*
X181665000Y-107485000D02*
X181665000Y-61325000D01*
X181665000Y-61325000D02*
X185005000Y-57985000D01*
X147825000Y-50985000D02*
X146095000Y-52715000D01*
X192320000Y-81550000D02*
X187005000Y-76235000D01*
X187005000Y-76235000D02*
X187005000Y-62605000D01*
X196115000Y-81550000D02*
X192320000Y-81550000D01*
D26*
X196115000Y-71390000D02*
X201195000Y-71390000D01*
D25*
X211355000Y-81550000D02*
X213940000Y-81550000D01*
X213940000Y-81550000D02*
X214755000Y-80735000D01*
X214755000Y-80735000D02*
X214755000Y-67235000D01*
X214755000Y-67235000D02*
X212505000Y-64985000D01*
X212505000Y-64985000D02*
X191925000Y-64985000D01*
X191925000Y-64985000D02*
X189545000Y-62605000D01*
D26*
X206275000Y-71390000D02*
X211355000Y-71390000D01*
D25*
X182005000Y-115985000D02*
X182804999Y-115185001D01*
X182804999Y-115185001D02*
X195554999Y-115185001D01*
X195554999Y-115185001D02*
X198255000Y-112485000D01*
X198255000Y-112485000D02*
X198255000Y-111985000D01*
D29*
X126505000Y-104735000D02*
X119005000Y-112235000D01*
X119005000Y-112235000D02*
X119005000Y-123445000D01*
X133594002Y-104735000D02*
X126505000Y-104735000D01*
X136525000Y-102235000D02*
X136094002Y-102235000D01*
X136094002Y-102235000D02*
X133594002Y-104735000D01*
X104255000Y-136735000D02*
X111255000Y-136735000D01*
X101505000Y-139485000D02*
X104255000Y-136735000D01*
X98255000Y-139485000D02*
X101505000Y-139485000D01*
X96005000Y-127485000D02*
X96005000Y-137235000D01*
X96005000Y-137235000D02*
X98255000Y-139485000D01*
X96005000Y-127485000D02*
X97580000Y-125910000D01*
X101260000Y-125910000D02*
X97580000Y-125910000D01*
X100375000Y-52715000D02*
X102915000Y-52715000D01*
X98145000Y-50485000D02*
X100375000Y-52715000D01*
X93505000Y-50485000D02*
X98145000Y-50485000D01*
X91505000Y-52485000D02*
X93505000Y-50485000D01*
X91505000Y-89985000D02*
X91505000Y-52485000D01*
X98005000Y-96485000D02*
X91505000Y-89985000D01*
X103505000Y-96485000D02*
X98005000Y-96485000D01*
X103505000Y-96485000D02*
X103505000Y-92075000D01*
X103505000Y-102235000D02*
X103505000Y-96485000D01*
X103505000Y-122985000D02*
X103505000Y-92075000D01*
D25*
X103505000Y-102235000D02*
X103505000Y-122985000D01*
D29*
X103255000Y-123445000D02*
X103255000Y-123235000D01*
X103255000Y-123235000D02*
X103505000Y-122985000D01*
X103255000Y-123445000D02*
X119005000Y-123445000D01*
X101260000Y-125910000D02*
X101260000Y-124360000D01*
X101260000Y-124360000D02*
X102175000Y-123445000D01*
X102175000Y-123445000D02*
X103255000Y-123445000D01*
D25*
X103255000Y-123445000D02*
X104755000Y-123445000D01*
X103965000Y-123445000D02*
X104755000Y-123445000D01*
X104755000Y-123445000D02*
X119005000Y-123445000D01*
X103505000Y-96485000D02*
X103005000Y-96485000D01*
X103005000Y-96485000D02*
X103505000Y-96485000D01*
X101260000Y-125910000D02*
X101420000Y-125910000D01*
X119005000Y-123445000D02*
X119005000Y-119755000D01*
D29*
X111420000Y-125910000D02*
X125930000Y-125910000D01*
X125930000Y-125910000D02*
X126005000Y-125985000D01*
X132645000Y-125135000D02*
X132645000Y-107355000D01*
X126005000Y-125985000D02*
X131795000Y-125985000D01*
X131795000Y-125985000D02*
X132645000Y-125135000D01*
D25*
X126005000Y-125985000D02*
X119005000Y-125985000D01*
X119005000Y-125985000D02*
X111495000Y-125985000D01*
X111495000Y-125985000D02*
X111420000Y-125910000D01*
X132645000Y-107355000D02*
X132645000Y-122595000D01*
X132645000Y-122595000D02*
X132460000Y-122410000D01*
X111420000Y-125910000D02*
X112000000Y-125330000D01*
D29*
X138955000Y-93235000D02*
X132715000Y-86995000D01*
X152505000Y-93235000D02*
X138955000Y-93235000D01*
X157480000Y-92075000D02*
X153665000Y-92075000D01*
X153665000Y-92075000D02*
X152505000Y-93235000D01*
D25*
X96255000Y-62735000D02*
X100505000Y-66985000D01*
X100505000Y-66985000D02*
X100505000Y-86985000D01*
X96255000Y-57735000D02*
X96255000Y-62735000D01*
X98735000Y-55255000D02*
X96255000Y-57735000D01*
X100375000Y-55255000D02*
X98735000Y-55255000D01*
D26*
X100330000Y-86995000D02*
X100280000Y-86945000D01*
X157480000Y-92075000D02*
X157480000Y-89535000D01*
D25*
X102915000Y-55255000D02*
X102915000Y-61395000D01*
X105505000Y-63985000D02*
X105505000Y-91535000D01*
X102915000Y-61395000D02*
X105505000Y-63985000D01*
X105505000Y-91535000D02*
X106045000Y-92075000D01*
X105455000Y-55255000D02*
X105455000Y-61935000D01*
X105455000Y-61935000D02*
X106755000Y-63235000D01*
X106755000Y-89235000D02*
X107005000Y-89485000D01*
X106755000Y-63235000D02*
X106755000Y-89235000D01*
X108585000Y-91065000D02*
X108585000Y-92075000D01*
X107005000Y-89485000D02*
X108585000Y-91065000D01*
D29*
X118155000Y-52715000D02*
X118155000Y-52835000D01*
X118155000Y-52835000D02*
X117176753Y-53813247D01*
X117176753Y-53813247D02*
X117176753Y-88156753D01*
X117176753Y-88156753D02*
X128905000Y-99885000D01*
X128905000Y-99885000D02*
X128905000Y-102235000D01*
X120695000Y-52715000D02*
X120695000Y-52795000D01*
X120695000Y-52795000D02*
X119005000Y-54485000D01*
X119005000Y-54485000D02*
X119005000Y-88085000D01*
X131445000Y-102235000D02*
X131445000Y-100525000D01*
X131445000Y-100525000D02*
X119005000Y-88085000D01*
X120755000Y-56235000D02*
X120755000Y-87735000D01*
X120755000Y-55735000D02*
X120755000Y-56235000D01*
X123275000Y-52715000D02*
X121255000Y-54735000D01*
X120755000Y-55235000D02*
X121255000Y-54735000D01*
X121255000Y-54735000D02*
X121005000Y-54985000D01*
X120755000Y-56235000D02*
X120755000Y-55235000D01*
X120755000Y-87735000D02*
X133985000Y-100965000D01*
X133985000Y-100965000D02*
X133985000Y-102235000D01*
X125775000Y-52715000D02*
X123275000Y-52715000D01*
X115255000Y-55235000D02*
X113075000Y-53055000D01*
X126365000Y-99345000D02*
X115255000Y-88235000D01*
X115255000Y-88235000D02*
X115255000Y-55235000D01*
X126365000Y-102235000D02*
X126365000Y-99345000D01*
X113075000Y-53055000D02*
X113075000Y-52715000D01*
X112980000Y-53000000D02*
X112980000Y-53260000D01*
X110535000Y-52715000D02*
X110735000Y-52715000D01*
X110735000Y-52715000D02*
X112505000Y-54485000D01*
X112505000Y-54485000D02*
X112505000Y-87234998D01*
X113665000Y-102235000D02*
X113665000Y-98825000D01*
X115005000Y-89734998D02*
X112505000Y-87234998D01*
X115005000Y-97485000D02*
X115005000Y-89734998D01*
X113665000Y-98825000D02*
X115005000Y-97485000D01*
X123235000Y-55255000D02*
X123235000Y-56457081D01*
X123235000Y-56457081D02*
X125505000Y-58727081D01*
X125505000Y-58727081D02*
X125505000Y-87985000D01*
X125505000Y-87985000D02*
X136755000Y-99235000D01*
X136755000Y-99235000D02*
X157005000Y-99235000D01*
X157005000Y-99235000D02*
X160255000Y-102485000D01*
X160255000Y-102485000D02*
X160255000Y-115835000D01*
X160255000Y-115835000D02*
X164620000Y-120200000D01*
X127005000Y-87485000D02*
X127005000Y-56485000D01*
X127005000Y-56485000D02*
X125775000Y-55255000D01*
X137255000Y-97735000D02*
X127005000Y-87485000D01*
X157755000Y-97735000D02*
X137255000Y-97735000D01*
X161755000Y-101735000D02*
X157755000Y-97735000D01*
X161755000Y-114795000D02*
X161755000Y-101735000D01*
X164620000Y-117660000D02*
X161755000Y-114795000D01*
X108585000Y-102235000D02*
X108585000Y-98405000D01*
X107995000Y-85975000D02*
X107995000Y-52715000D01*
X113005000Y-90985000D02*
X107995000Y-85975000D01*
X113005000Y-93985000D02*
X113005000Y-90985000D01*
X108585000Y-98405000D02*
X113005000Y-93985000D01*
X128315000Y-55255000D02*
X128315000Y-86838516D01*
X128315000Y-86838516D02*
X137961484Y-96485000D01*
X137961484Y-96485000D02*
X158505000Y-96485000D01*
X158505000Y-96485000D02*
X163244999Y-101224999D01*
X163244999Y-101224999D02*
X163244999Y-113744999D01*
X163244999Y-113744999D02*
X163820001Y-114320001D01*
X163820001Y-114320001D02*
X164620000Y-115120000D01*
X130805000Y-87235000D02*
X130805000Y-55205000D01*
X167105000Y-107985000D02*
X167105000Y-103100002D01*
X167105000Y-103100002D02*
X159239998Y-95235000D01*
X159239998Y-95235000D02*
X138553998Y-95235000D01*
X138553998Y-95235000D02*
X130805000Y-87486002D01*
X130805000Y-87486002D02*
X130805000Y-87235000D01*
X167105000Y-121985000D02*
X167105000Y-107985000D01*
X167105000Y-107985000D02*
X167105000Y-107318260D01*
X130805000Y-55205000D02*
X128315000Y-52715000D01*
X164620000Y-122740000D02*
X166350000Y-122740000D01*
X166350000Y-122740000D02*
X167105000Y-121985000D01*
D25*
X171845000Y-115985000D02*
X171845000Y-120985000D01*
D28*
X190005000Y-140235000D02*
X193205000Y-140235000D01*
X193205000Y-140235000D02*
X195205000Y-142235000D01*
X195205000Y-142235000D02*
X201755000Y-142235000D01*
X201755000Y-142235000D02*
X207005000Y-136985000D01*
X207005000Y-136985000D02*
X207005000Y-131985000D01*
X207005000Y-131985000D02*
X211755000Y-127235000D01*
X211755000Y-127235000D02*
X211755000Y-112785000D01*
X211755000Y-112785000D02*
X210955000Y-111985000D01*
D25*
X132005000Y-59185000D02*
X132005000Y-82135000D01*
X132005000Y-82135000D02*
X140870000Y-91000000D01*
X135935000Y-55255000D02*
X132005000Y-59185000D01*
D26*
X140870000Y-91000000D02*
X140530000Y-91000000D01*
D25*
X134745000Y-58985000D02*
X134745000Y-79875000D01*
X134745000Y-79875000D02*
X140870000Y-86000000D01*
X138475000Y-55255000D02*
X134745000Y-58985000D01*
X141015000Y-55255000D02*
X144745000Y-58985000D01*
X144745000Y-58985000D02*
X148005000Y-58985000D01*
X166005000Y-66985000D02*
X168275000Y-69255000D01*
X148005000Y-58985000D02*
X156005000Y-66985000D01*
X156005000Y-66985000D02*
X166005000Y-66985000D01*
X168275000Y-69255000D02*
X168275000Y-79375000D01*
X166425000Y-65405000D02*
X173990000Y-72970000D01*
X173990000Y-72970000D02*
X173990000Y-79375000D01*
X157005000Y-65405000D02*
X166425000Y-65405000D01*
X145285000Y-56985000D02*
X148585000Y-56985000D01*
X148585000Y-56985000D02*
X157005000Y-65405000D01*
X143555000Y-55255000D02*
X145285000Y-56985000D01*
D26*
X151030000Y-91000000D02*
X148785000Y-91000000D01*
X156210000Y-83185000D02*
X157480000Y-84455000D01*
X149225000Y-83185000D02*
X156210000Y-83185000D01*
X147320000Y-85090000D02*
X149225000Y-83185000D01*
X147320000Y-89535000D02*
X147320000Y-85090000D01*
X148785000Y-91000000D02*
X147320000Y-89535000D01*
X160020000Y-89535000D02*
X168275000Y-89535000D01*
X168275000Y-89535000D02*
X168275000Y-92075000D01*
X160020000Y-92075000D02*
X163830000Y-92075000D01*
X173990000Y-96520000D02*
X173990000Y-89535000D01*
X168275000Y-96520000D02*
X173990000Y-96520000D01*
X163830000Y-92075000D02*
X168275000Y-96520000D01*
D25*
X182005000Y-120985000D02*
X184755000Y-118235000D01*
X184755000Y-118235000D02*
X190255000Y-118235000D01*
X190255000Y-118235000D02*
X191255000Y-119235000D01*
X191255000Y-119235000D02*
X191255000Y-121235000D01*
D28*
X190005000Y-133235000D02*
X192455000Y-133235000D01*
X192455000Y-133235000D02*
X196955000Y-128735000D01*
X196955000Y-128735000D02*
X199005000Y-128735000D01*
X199005000Y-128735000D02*
X203955000Y-123785000D01*
X203955000Y-123785000D02*
X203955000Y-121235000D01*
M02*
