G04 #@! TF.FileFunction,Copper,L1,Top,Signal*
%FSLAX46Y46*%
G04 Gerber Fmt 4.6, Leading zero omitted, Abs format (unit mm)*
G04 Created by KiCad (PCBNEW 4.0.7) date 05/28/18 16:01:47*
%MOMM*%
%LPD*%
G01*
G04 APERTURE LIST*
%ADD10C,0.100000*%
%ADD11R,1.600000X1.600000*%
%ADD12O,1.600000X1.600000*%
%ADD13C,2.400000*%
%ADD14R,2.400000X2.400000*%
%ADD15R,1.700000X1.700000*%
%ADD16O,1.700000X1.700000*%
%ADD17C,1.600000*%
%ADD18C,3.500000*%
%ADD19O,2.540000X2.032000*%
%ADD20R,2.000000X3.000000*%
%ADD21O,2.000000X3.000000*%
%ADD22C,2.500000*%
%ADD23C,3.000000*%
%ADD24C,0.600000*%
%ADD25C,0.500000*%
%ADD26C,0.750000*%
G04 APERTURE END LIST*
D10*
D11*
X157000000Y-107500000D03*
D12*
X164620000Y-125280000D03*
X157000000Y-110040000D03*
X164620000Y-122740000D03*
X157000000Y-112580000D03*
X164620000Y-120200000D03*
X157000000Y-115120000D03*
X164620000Y-117660000D03*
X157000000Y-117660000D03*
X164620000Y-115120000D03*
X157000000Y-120200000D03*
X164620000Y-112580000D03*
X157000000Y-122740000D03*
X164620000Y-110040000D03*
X157000000Y-125280000D03*
X164620000Y-107500000D03*
D13*
X190005000Y-133235000D03*
X190005000Y-129735000D03*
X190005000Y-136735000D03*
D14*
X190005000Y-140235000D03*
D15*
X100375000Y-55255000D03*
D16*
X100375000Y-52715000D03*
X102915000Y-55255000D03*
X102915000Y-52715000D03*
X105455000Y-55255000D03*
X105455000Y-52715000D03*
X107995000Y-52715000D03*
X110535000Y-55255000D03*
X110535000Y-52715000D03*
X113075000Y-52715000D03*
X115615000Y-52715000D03*
X118155000Y-52715000D03*
X120695000Y-52715000D03*
X123235000Y-55255000D03*
X125775000Y-55255000D03*
X125775000Y-52715000D03*
X128315000Y-55255000D03*
X128315000Y-52715000D03*
X130855000Y-52715000D03*
X133395000Y-55255000D03*
X133395000Y-52715000D03*
X135935000Y-55255000D03*
X135935000Y-52715000D03*
X138475000Y-55255000D03*
X138475000Y-52715000D03*
X141015000Y-55255000D03*
X141015000Y-52715000D03*
X143555000Y-55255000D03*
X143555000Y-52715000D03*
X146095000Y-55255000D03*
X146095000Y-52715000D03*
X148635000Y-55255000D03*
X148635000Y-52715000D03*
D11*
X101260000Y-125910000D03*
D17*
X101260000Y-130910000D03*
D11*
X111420000Y-125910000D03*
D17*
X111420000Y-130910000D03*
D11*
X126005000Y-125985000D03*
D17*
X126005000Y-130985000D03*
D18*
X195600000Y-102505000D03*
X200600000Y-102505000D03*
X205600000Y-102505000D03*
X210600000Y-102505000D03*
D15*
X132645000Y-107355000D03*
D16*
X135185000Y-107355000D03*
X132645000Y-109895000D03*
X135185000Y-109895000D03*
X132645000Y-112435000D03*
X135185000Y-112435000D03*
X132645000Y-114975000D03*
X135185000Y-114975000D03*
X132645000Y-117515000D03*
X135185000Y-117515000D03*
X132645000Y-120055000D03*
X135185000Y-120055000D03*
X132645000Y-122595000D03*
X135185000Y-122595000D03*
X132645000Y-125135000D03*
X135185000Y-125135000D03*
D15*
X100965000Y-102235000D03*
D16*
X103505000Y-102235000D03*
X106045000Y-102235000D03*
X108585000Y-102235000D03*
X111125000Y-102235000D03*
X113665000Y-102235000D03*
X116205000Y-102235000D03*
X118745000Y-102235000D03*
X121285000Y-102235000D03*
X123825000Y-102235000D03*
X126365000Y-102235000D03*
X128905000Y-102235000D03*
X131445000Y-102235000D03*
X133985000Y-102235000D03*
X136525000Y-102235000D03*
X139065000Y-102235000D03*
D15*
X100965000Y-92075000D03*
D16*
X103505000Y-92075000D03*
X106045000Y-92075000D03*
X108585000Y-92075000D03*
X111125000Y-92075000D03*
D17*
X171505000Y-107485000D03*
D12*
X181665000Y-107485000D03*
D17*
X196115000Y-81550000D03*
D12*
X196115000Y-71390000D03*
D17*
X201195000Y-71390000D03*
D12*
X201195000Y-81550000D03*
D17*
X211355000Y-81550000D03*
D12*
X211355000Y-71390000D03*
D17*
X206275000Y-71390000D03*
D12*
X206275000Y-81550000D03*
D17*
X95885000Y-108585000D03*
D12*
X106045000Y-108585000D03*
D17*
X151030000Y-91000000D03*
D12*
X140870000Y-91000000D03*
D17*
X151030000Y-86000000D03*
D12*
X140870000Y-86000000D03*
D17*
X168275000Y-89535000D03*
D12*
X168275000Y-79375000D03*
D17*
X173990000Y-89535000D03*
D12*
X173990000Y-79375000D03*
D17*
X168275000Y-92075000D03*
D12*
X168275000Y-102235000D03*
D17*
X173990000Y-92075000D03*
D12*
X173990000Y-102235000D03*
D17*
X182005000Y-115985000D03*
D12*
X171845000Y-115985000D03*
D19*
X119005000Y-125985000D03*
X119005000Y-123445000D03*
X119005000Y-128525000D03*
D20*
X210955000Y-111985000D03*
D21*
X205875000Y-111985000D03*
X198255000Y-111985000D03*
X195715000Y-111985000D03*
D11*
X187005000Y-62605000D03*
D12*
X192085000Y-54985000D03*
X189545000Y-62605000D03*
X189545000Y-54985000D03*
X192085000Y-62605000D03*
X187005000Y-54985000D03*
D11*
X196115000Y-91075000D03*
D17*
X201115000Y-91075000D03*
X182005000Y-120985000D03*
D12*
X171845000Y-120985000D03*
D20*
X203955000Y-121235000D03*
D21*
X198875000Y-121235000D03*
X191255000Y-121235000D03*
X188715000Y-121235000D03*
D13*
X111255000Y-140235000D03*
D14*
X111255000Y-136735000D03*
D15*
X157480000Y-84455000D03*
D16*
X160020000Y-84455000D03*
X157480000Y-86995000D03*
X160020000Y-86995000D03*
X157480000Y-89535000D03*
X160020000Y-89535000D03*
X157480000Y-92075000D03*
X160020000Y-92075000D03*
D22*
X96005000Y-112985000D03*
X103005000Y-65485000D03*
X110505000Y-65485000D03*
X133005000Y-86985000D03*
X100505000Y-86985000D03*
X111005000Y-112985000D03*
D23*
X138755000Y-135985000D03*
X136215000Y-140985000D03*
X143755000Y-135985000D03*
X141215000Y-140985000D03*
X148755000Y-135985000D03*
X146215000Y-140985000D03*
X153755000Y-135985000D03*
X151215000Y-140985000D03*
X158755000Y-135985000D03*
X156215000Y-140985000D03*
X163755000Y-135985000D03*
X161215000Y-140985000D03*
X168755000Y-135985000D03*
X166215000Y-140985000D03*
X173755000Y-135985000D03*
X171215000Y-140985000D03*
D22*
X95755000Y-102235000D03*
X95755000Y-89235000D03*
D24*
X111005000Y-112985000D03*
X96005000Y-112985000D03*
X103005000Y-65485000D03*
X110505000Y-65485000D03*
X135185000Y-107355000D03*
X157000000Y-107500000D03*
X164620000Y-107500000D03*
X132715000Y-86995000D03*
X100330000Y-86995000D03*
D25*
X168910000Y-112580000D02*
X171410000Y-112580000D01*
X171410000Y-112580000D02*
X173990000Y-110000000D01*
X168910000Y-112580000D02*
X164620000Y-112580000D01*
X173990000Y-102235000D02*
X173990000Y-110000000D01*
X135185000Y-107355000D02*
X135330000Y-107500000D01*
X135330000Y-107500000D02*
X157000000Y-107500000D01*
X135185000Y-109895000D02*
X156855000Y-109895000D01*
X156855000Y-109895000D02*
X157000000Y-110040000D01*
X156855000Y-109895000D02*
X157000000Y-110040000D01*
X135185000Y-112435000D02*
X156855000Y-112435000D01*
X156855000Y-112435000D02*
X157000000Y-112580000D01*
X157000000Y-115120000D02*
X135330000Y-115120000D01*
X135330000Y-115120000D02*
X135185000Y-114975000D01*
X135185000Y-117515000D02*
X156855000Y-117515000D01*
X156855000Y-117515000D02*
X157000000Y-117660000D01*
X157000000Y-120200000D02*
X135330000Y-120200000D01*
X135330000Y-120200000D02*
X135185000Y-120055000D01*
X135185000Y-122595000D02*
X156855000Y-122595000D01*
X156855000Y-122595000D02*
X157000000Y-122740000D01*
X157000000Y-125280000D02*
X135330000Y-125280000D01*
X135330000Y-125280000D02*
X135185000Y-125135000D01*
D26*
X163755000Y-110040000D02*
X164620000Y-110040000D01*
X162560000Y-110040000D02*
X163755000Y-110040000D01*
X161005000Y-108485000D02*
X162560000Y-110040000D01*
X161005000Y-105485000D02*
X161005000Y-108485000D01*
X160005000Y-104485000D02*
X161005000Y-105485000D01*
X133915000Y-104485000D02*
X160005000Y-104485000D01*
X132645000Y-107355000D02*
X132645000Y-105755000D01*
X132645000Y-105755000D02*
X133915000Y-104485000D01*
X133915000Y-104485000D02*
X134165000Y-104485000D01*
D25*
X134165000Y-104485000D02*
X160005000Y-104485000D01*
X164620000Y-103100000D02*
X164620000Y-107500000D01*
X171505000Y-107485000D02*
X164635000Y-107485000D01*
X164635000Y-107485000D02*
X164620000Y-107500000D01*
X157480000Y-95960000D02*
X164620000Y-103100000D01*
X157480000Y-92075000D02*
X157480000Y-95960000D01*
X148635000Y-52715000D02*
X154255000Y-58335000D01*
X154255000Y-58335000D02*
X154905000Y-58335000D01*
X178505000Y-67485000D02*
X178505000Y-113985000D01*
X154905000Y-58335000D02*
X157755000Y-55485000D01*
X157755000Y-55485000D02*
X166505000Y-55485000D01*
X166505000Y-55485000D02*
X178505000Y-67485000D01*
X178505000Y-113985000D02*
X176505000Y-115985000D01*
X176505000Y-115985000D02*
X171845000Y-115985000D01*
X148635000Y-52715000D02*
X149235000Y-52715000D01*
M02*
